<svg width="356" height="611" viewBox="0 0 356 611" fill="none" xmlns="http://www.w3.org/2000/svg">
<g filter="url(#filter0_f_251_2094)">
<line x1="178.777" y1="100.63" x2="178.777" y2="429.181" stroke="#47A4B5" stroke-width="2"/>
<path d="M253.553 387.842C253.553 391.894 251.58 395.845 247.819 399.537C244.055 403.232 238.557 406.606 231.682 409.46C217.937 415.168 198.879 418.721 177.777 418.721C156.674 418.721 137.616 415.168 123.871 409.46C116.996 406.606 111.498 403.232 107.734 399.537C103.974 395.845 102 391.894 102 387.842C102 383.79 103.974 379.838 107.734 376.146C111.498 372.451 116.996 369.077 123.871 366.223C137.616 360.515 156.674 356.962 177.777 356.962C198.879 356.962 217.937 360.515 231.682 366.223C238.557 369.077 244.055 372.451 247.819 376.146C251.58 379.838 253.553 383.79 253.553 387.842Z" stroke="#47A4B5" stroke-width="2"/>
<path d="M177.227 356.209C219.629 356.209 254.003 341.936 254.003 324.329C254.003 306.722 219.629 292.449 177.227 292.449" stroke="#47A4B5" stroke-width="2"/>
<path d="M253.553 451.601C253.553 455.653 251.58 459.605 247.819 463.297C244.055 466.992 238.557 470.366 231.682 473.22C217.937 478.928 198.879 482.481 177.777 482.481C156.674 482.481 137.616 478.928 123.871 473.22C116.996 470.366 111.498 466.992 107.734 463.297C103.974 459.605 102 455.653 102 451.601C102 447.549 103.974 443.598 107.734 439.906C111.498 436.211 116.996 432.837 123.871 429.983C137.616 424.275 156.674 420.722 177.777 420.722C198.879 420.722 217.937 424.275 231.682 429.983C238.557 432.837 244.055 436.211 247.819 439.906C251.58 443.598 253.553 447.549 253.553 451.601Z" stroke="#47A4B5" stroke-width="2"/>
<path d="M253.553 515.36C253.553 519.412 251.58 523.364 247.819 527.056C244.055 530.751 238.557 534.124 231.682 536.979C217.937 542.686 198.879 546.24 177.777 546.24C156.674 546.24 137.616 542.686 123.871 536.979C116.996 534.124 111.498 530.751 107.734 527.056C103.974 523.364 102 519.412 102 515.36C102 511.308 103.974 507.356 107.734 503.665C111.498 499.97 116.996 496.596 123.871 493.741C137.616 488.034 156.674 484.48 177.777 484.48C198.879 484.48 217.937 488.034 231.682 493.741C238.557 496.596 244.055 499.97 247.819 503.665C251.58 507.356 253.553 511.308 253.553 515.36Z" stroke="#47A4B5" stroke-width="2"/>
<path d="M177.777 611C135.374 611 101 596.727 101 579.12C101 561.513 135.374 547.24 177.777 547.24" stroke="#47A4B5" stroke-width="2"/>
</g>
<defs>
<filter id="filter0_f_251_2094" x="0" y="0.629883" width="355.004" height="711.37" filterUnits="userSpaceOnUse" color-interpolation-filters="sRGB">
<feFlood flood-opacity="0" result="BackgroundImageFix"/>
<feBlend mode="normal" in="SourceGraphic" in2="BackgroundImageFix" result="shape"/>
<feGaussianBlur stdDeviation="50" result="effect1_foregroundBlur_251_2094"/>
</filter>
</defs>
</svg>
