<svg width="618" height="327" viewBox="0 0 618 327" fill="none" xmlns="http://www.w3.org/2000/svg">
<path d="M219.481 199.807H233.113L239.93 269.711H210.96L219.481 199.807Z" fill="url(#paint0_linear_411_656)"/>
<path d="M263.824 269.479V276.1H188.728V269.479H263.824Z" fill="#6C6C6D"/>
<rect x="313.32" y="275.271" width="8.27639" height="174.087" transform="rotate(90 313.32 275.271)" fill="#AEABAB"/>
<path d="M269.271 225.193C261.595 228.505 247.21 237.776 251.072 248.372" stroke="black" stroke-width="0.5"/>
<path d="M272.984 232.919C267.289 234.513 256.717 240.351 259.985 250.947" stroke="black" stroke-width="0.5"/>
<path d="M218.387 62.5752H233.986V176.629L226.186 190.61L218.387 176.629V62.5752Z" fill="#757171"/>
<path d="M195.707 158.895L218.388 188.034V199.807L184.219 158.895V62.9429H195.707V158.895Z" fill="#47A4B5"/>
<path d="M170.846 175.519L208.729 217.974V235.128L158.961 175.519V63.6795L170.846 63.6792V175.519Z" fill="#47A4B5"/>
<path d="M288.39 174.302L251.073 216.575V233.655L300.098 174.303V62.9432L288.39 62.9429V174.302Z" fill="#47A4B5"/>
<path d="M256.665 158.895L233.984 188.034V199.807L268.152 158.895V62.9429H256.665V158.895Z" fill="#47A4B5"/>
<path d="M144.014 62.9429H129.25V223.542L162.305 249.088H178.176L144.014 223.542V62.9429Z" fill="#47A4B5"/>
<path d="M317.984 62.9429H332.777V223.559L299.656 249.108H283.753L317.984 223.559V62.9429Z" fill="#47A4B5"/>
<ellipse cx="225.443" cy="266.768" rx="21.1698" ry="5.88664" fill="#E2832B"/>
<ellipse cx="174.931" cy="73.9807" rx="1.857" ry="1.83957" fill="#181818"/>
<ellipse cx="275.212" cy="65.1506" rx="1.857" ry="1.83957" fill="#181818"/>
<ellipse cx="1.85043" cy="1.84619" rx="1.85043" ry="1.84619" transform="matrix(0.791249 -0.611494 0.618704 0.785624 178.277 152.402)" fill="#181818"/>
<ellipse cx="1.85043" cy="1.84619" rx="1.85043" ry="1.84619" transform="matrix(0.791249 -0.611494 0.618704 0.785624 278.555 143.573)" fill="#181818"/>
<ellipse cx="175.677" cy="113.715" rx="1.857" ry="1.83957" fill="#181818"/>
<ellipse cx="275.955" cy="104.885" rx="1.857" ry="1.83957" fill="#181818"/>
<ellipse cx="1.85043" cy="1.84619" rx="1.85043" ry="1.84619" transform="matrix(0.791249 -0.611494 0.618704 0.785624 186.449 185.082)" fill="#181818"/>
<ellipse cx="1.85037" cy="1.84624" rx="1.85037" ry="1.84624" transform="matrix(0.789212 0.61412 -0.621324 0.783554 266.277 175.202)" fill="#181818"/>
<ellipse cx="1.85694" cy="1.83963" rx="1.85694" ry="1.83963" transform="matrix(0.998363 0.0572028 -0.058288 0.9983 223.176 220.039)" fill="#181818"/>
<ellipse cx="180.873" cy="111.508" rx="1.857" ry="1.83957" fill="#181818"/>
<ellipse cx="281.154" cy="102.677" rx="1.857" ry="1.83957" fill="#181818"/>
<ellipse cx="1.85043" cy="1.84619" rx="1.85043" ry="1.84619" transform="matrix(0.791249 -0.611494 0.618704 0.785624 189.18 180.173)" fill="#181818"/>
<ellipse cx="1.85037" cy="1.84624" rx="1.85037" ry="1.84624" transform="matrix(0.789212 0.61412 -0.621324 0.783554 271.738 176.648)" fill="#181818"/>
<ellipse cx="1.85694" cy="1.83963" rx="1.85694" ry="1.83963" transform="matrix(0.998363 0.0572028 -0.058288 0.9983 232.715 219.307)" fill="#181818"/>
<ellipse cx="1.84521" cy="1.8514" rx="1.84521" ry="1.8514" transform="matrix(0.571202 0.82081 -0.825811 0.563947 180.637 83.9141)" fill="#181818"/>
<ellipse cx="1.84521" cy="1.8514" rx="1.84521" ry="1.8514" transform="matrix(0.571202 0.82081 -0.825811 0.563947 280.914 75.084)" fill="#181818"/>
<ellipse cx="1.85544" cy="1.84115" rx="1.85544" ry="1.84115" transform="matrix(0.954732 0.297467 -0.302615 0.953113 172.703 159.705)" fill="#181818"/>
<ellipse cx="1.85544" cy="1.84115" rx="1.85544" ry="1.84115" transform="matrix(0.954732 0.297467 -0.302615 0.953113 272.98 150.875)" fill="#181818"/>
<ellipse cx="1.84521" cy="1.8514" rx="1.84521" ry="1.8514" transform="matrix(0.571202 0.82081 -0.825811 0.563947 181.375 123.649)" fill="#181818"/>
<ellipse cx="1.84521" cy="1.8514" rx="1.84521" ry="1.8514" transform="matrix(0.571202 0.82081 -0.825811 0.563947 281.656 114.819)" fill="#181818"/>
<ellipse cx="1.85544" cy="1.84115" rx="1.85544" ry="1.84115" transform="matrix(0.954732 0.297467 -0.302615 0.953113 199.719 189.759)" fill="#181818"/>
<ellipse cx="1.83964" cy="1.85693" rx="1.83964" ry="1.85693" transform="matrix(-0.0628369 0.998024 -0.998097 -0.0616676 264.875 189.084)" fill="#181818"/>
<ellipse cx="1.84429" cy="1.85232" rx="1.84429" ry="1.85232" transform="matrix(0.522664 0.852539 -0.856881 0.515514 230.031 232.225)" fill="#181818"/>
<ellipse cx="1.85637" cy="1.84021" rx="1.85637" ry="1.84021" transform="matrix(0.982013 -0.188813 0.192275 0.981341 171.59 97.8604)" fill="#181818"/>
<ellipse cx="1.85637" cy="1.84021" rx="1.85637" ry="1.84021" transform="matrix(0.982013 -0.188813 0.192275 0.981341 271.867 89.0298)" fill="#181818"/>
<ellipse cx="1.84711" cy="1.8495" rx="1.84711" ry="1.8495" transform="matrix(0.660321 -0.750984 0.757118 0.653279 175.988 175.389)" fill="#181818"/>
<ellipse cx="1.84711" cy="1.8495" rx="1.84711" ry="1.8495" transform="matrix(0.660321 -0.750984 0.757118 0.653279 276.27 166.56)" fill="#181818"/>
<ellipse cx="1.85637" cy="1.84021" rx="1.85637" ry="1.84021" transform="matrix(0.982013 -0.188813 0.192275 0.981341 172.332 137.595)" fill="#181818"/>
<ellipse cx="1.85637" cy="1.84021" rx="1.85637" ry="1.84021" transform="matrix(0.982013 -0.188813 0.192275 0.981341 272.613 128.765)" fill="#181818"/>
<ellipse cx="1.84711" cy="1.8495" rx="1.84711" ry="1.8495" transform="matrix(0.660321 -0.750984 0.757118 0.653279 201.246 206.266)" fill="#181818"/>
<ellipse cx="1.85338" cy="1.84322" rx="1.85338" ry="1.84322" transform="matrix(0.891424 0.453169 -0.459984 0.887927 249.066 194.518)" fill="#181818"/>
<ellipse cx="1.84856" cy="1.84806" rx="1.84856" ry="1.84806" transform="matrix(-0.720501 0.693454 -0.700213 -0.713934 245.41 208.62)" fill="#181818"/>
<ellipse cx="1.85226" cy="1.84435" rx="1.85226" ry="1.84435" transform="matrix(-0.854806 -0.518948 0.526111 -0.850416 218.578 217.008)" fill="#181818"/>
<ellipse cx="1.85669" cy="1.83989" rx="1.85669" ry="1.83989" transform="matrix(0.991209 -0.132303 0.134776 0.990876 220.191 245.629)" fill="#181818"/>
<ellipse cx="180.873" cy="79.8669" rx="1.857" ry="1.83957" fill="#181818"/>
<ellipse cx="281.154" cy="71.0368" rx="1.857" ry="1.83957" fill="#181818"/>
<ellipse cx="1.85043" cy="1.84619" rx="1.85043" ry="1.84619" transform="matrix(0.791249 -0.611494 0.618704 0.785624 173.82 155.345)" fill="#181818"/>
<ellipse cx="1.85043" cy="1.84619" rx="1.85043" ry="1.84619" transform="matrix(0.791249 -0.611494 0.618704 0.785624 274.098 146.516)" fill="#181818"/>
<ellipse cx="181.619" cy="119.602" rx="1.857" ry="1.83957" fill="#181818"/>
<ellipse cx="281.896" cy="110.772" rx="1.857" ry="1.83957" fill="#181818"/>
<ellipse cx="1.85043" cy="1.84619" rx="1.85043" ry="1.84619" transform="matrix(0.791249 -0.611494 0.618704 0.785624 194.793 186.103)" fill="#181818"/>
<ellipse cx="1.85037" cy="1.84624" rx="1.85037" ry="1.84624" transform="matrix(0.789212 0.61412 -0.621324 0.783554 267.273 183.468)" fill="#181818"/>
<ellipse cx="1.85694" cy="1.83963" rx="1.85694" ry="1.83963" transform="matrix(0.998363 0.0572028 -0.058288 0.9983 228.766 226.257)" fill="#181818"/>
<ellipse cx="1.84521" cy="1.8514" rx="1.84521" ry="1.8514" transform="matrix(0.571202 0.82081 -0.825811 0.563947 179.113 92.1016)" fill="#181818"/>
<ellipse cx="1.84521" cy="1.8514" rx="1.84521" ry="1.8514" transform="matrix(0.571202 0.82081 -0.825811 0.563947 279.395 83.2715)" fill="#181818"/>
<ellipse cx="1.85544" cy="1.84115" rx="1.85544" ry="1.84115" transform="matrix(0.954732 0.297467 -0.302615 0.953113 180.875 167.063)" fill="#181818"/>
<ellipse cx="1.85544" cy="1.84115" rx="1.85544" ry="1.84115" transform="matrix(0.954732 0.297467 -0.302615 0.953113 278.621 157.435)" fill="#181818"/>
<ellipse cx="1.84521" cy="1.8514" rx="1.84521" ry="1.8514" transform="matrix(0.571202 0.82081 -0.825811 0.563947 179.855 131.836)" fill="#181818"/>
<ellipse cx="1.84521" cy="1.8514" rx="1.84521" ry="1.8514" transform="matrix(0.571202 0.82081 -0.825811 0.563947 280.133 123.007)" fill="#181818"/>
<ellipse cx="1.85544" cy="1.84115" rx="1.85544" ry="1.84115" transform="matrix(0.954732 0.297467 -0.302615 0.953113 203.602 197.141)" fill="#181818"/>
<ellipse cx="1.83964" cy="1.85693" rx="1.83964" ry="1.85693" transform="matrix(-0.0628369 0.998024 -0.998097 -0.0616676 258.574 194.592)" fill="#181818"/>
<ellipse cx="1.85452" cy="1.84208" rx="1.85452" ry="1.84208" transform="matrix(-0.92692 -0.375259 0.381371 -0.924422 240.395 218.218)" fill="#181818"/>
<ellipse cx="1.83991" cy="1.85667" rx="1.83991" ry="1.85667" transform="matrix(0.138805 -0.99032 0.990673 0.13626 214.672 222.951)" fill="#181818"/>
<ellipse cx="1.84429" cy="1.85232" rx="1.84429" ry="1.85232" transform="matrix(0.522664 0.852539 -0.856881 0.515514 228.035 240.312)" fill="#181818"/>
<ellipse cx="1.85637" cy="1.84021" rx="1.85637" ry="1.84021" transform="matrix(0.982013 -0.188813 0.192275 0.981341 178.555 102.518)" fill="#181818"/>
<ellipse cx="1.85637" cy="1.84021" rx="1.85637" ry="1.84021" transform="matrix(0.982013 -0.188813 0.192275 0.981341 278.832 93.688)" fill="#181818"/>
<ellipse cx="1.84711" cy="1.8495" rx="1.84711" ry="1.8495" transform="matrix(0.660321 -0.750984 0.757118 0.653279 184.371 174.816)" fill="#181818"/>
<ellipse cx="1.85338" cy="1.84322" rx="1.85338" ry="1.84322" transform="matrix(0.891424 0.453169 -0.459984 0.887927 275.832 170.743)" fill="#181818"/>
<ellipse cx="1.85669" cy="1.83989" rx="1.85669" ry="1.83989" transform="matrix(0.991209 -0.132303 0.134776 0.990876 231.758 213.175)" fill="#181818"/>
<ellipse cx="1.85338" cy="1.84322" rx="1.85338" ry="1.84322" transform="matrix(0.891424 0.453169 -0.459984 0.887927 269.105 170.006)" fill="#181818"/>
<ellipse cx="1.85669" cy="1.83989" rx="1.85669" ry="1.83989" transform="matrix(0.991209 -0.132303 0.134776 0.990876 222.504 214.172)" fill="#181818"/>
<ellipse cx="1.85637" cy="1.84021" rx="1.85637" ry="1.84021" transform="matrix(0.982013 -0.188813 0.192275 0.981341 179.301 142.253)" fill="#181818"/>
<ellipse cx="1.85637" cy="1.84021" rx="1.85637" ry="1.84021" transform="matrix(0.982013 -0.188813 0.192275 0.981341 279.578 133.423)" fill="#181818"/>
<ellipse cx="1.84711" cy="1.8495" rx="1.84711" ry="1.8495" transform="matrix(0.660321 -0.750984 0.757118 0.653279 209.637 205.693)" fill="#181818"/>
<ellipse cx="1.85338" cy="1.84322" rx="1.85338" ry="1.84322" transform="matrix(0.891424 0.453169 -0.459984 0.887927 251.641 202.443)" fill="#181818"/>
<ellipse cx="1.84856" cy="1.84806" rx="1.84856" ry="1.84806" transform="matrix(-0.720501 0.693454 -0.700213 -0.713934 237.008 208.5)" fill="#181818"/>
<ellipse cx="1.85226" cy="1.84435" rx="1.85226" ry="1.84435" transform="matrix(-0.854806 -0.518948 0.526111 -0.850416 218.469 211.122)" fill="#181818"/>
<ellipse cx="1.85669" cy="1.83989" rx="1.85669" ry="1.83989" transform="matrix(0.991209 -0.132303 0.134776 0.990876 226.879 250.679)" fill="#181818"/>
<ellipse cx="174.931" cy="82.0744" rx="1.857" ry="1.83957" fill="#181818"/>
<ellipse cx="275.212" cy="73.2444" rx="1.857" ry="1.83957" fill="#181818"/>
<ellipse cx="1.85043" cy="1.84619" rx="1.85043" ry="1.84619" transform="matrix(0.791249 -0.611494 0.618704 0.785624 179.016 162.704)" fill="#181818"/>
<ellipse cx="1.85043" cy="1.84619" rx="1.85043" ry="1.84619" transform="matrix(0.791249 -0.611494 0.618704 0.785624 279.297 153.874)" fill="#181818"/>
<ellipse cx="175.677" cy="121.809" rx="1.857" ry="1.83957" fill="#181818"/>
<ellipse cx="275.955" cy="112.98" rx="1.857" ry="1.83957" fill="#181818"/>
<ellipse cx="1.85043" cy="1.84619" rx="1.85043" ry="1.84619" transform="matrix(0.791249 -0.611494 0.618704 0.785624 191.473 191.464)" fill="#181818"/>
<ellipse cx="1.85037" cy="1.84624" rx="1.85037" ry="1.84624" transform="matrix(0.789212 0.61412 -0.621324 0.783554 261.227 181.566)" fill="#181818"/>
<ellipse cx="1.85694" cy="1.83963" rx="1.85694" ry="1.83963" transform="matrix(0.998363 0.0572028 -0.058288 0.9983 222.703 228.119)" fill="#181818"/>
<ellipse cx="1.84521" cy="1.8514" rx="1.84521" ry="1.8514" transform="matrix(0.571202 0.82081 -0.825811 0.563947 173.906 88.5078)" fill="#181818"/>
<ellipse cx="1.84521" cy="1.8514" rx="1.84521" ry="1.8514" transform="matrix(0.571202 0.82081 -0.825811 0.563947 274.18 79.6777)" fill="#181818"/>
<ellipse cx="1.85544" cy="1.84115" rx="1.85544" ry="1.84115" transform="matrix(0.954732 0.297467 -0.302615 0.953113 173.445 167.063)" fill="#181818"/>
<ellipse cx="1.85544" cy="1.84115" rx="1.85544" ry="1.84115" transform="matrix(0.954732 0.297467 -0.302615 0.953113 273.727 158.233)" fill="#181818"/>
<ellipse cx="1.85544" cy="1.84115" rx="1.85544" ry="1.84115" transform="matrix(0.954732 0.297467 -0.302615 0.953113 268.523 163.384)" fill="#181818"/>
<ellipse cx="1.84521" cy="1.8514" rx="1.84521" ry="1.8514" transform="matrix(0.571202 0.82081 -0.825811 0.563947 174.648 128.243)" fill="#181818"/>
<ellipse cx="1.84521" cy="1.8514" rx="1.84521" ry="1.8514" transform="matrix(0.571202 0.82081 -0.825811 0.563947 274.93 119.413)" fill="#181818"/>
<ellipse cx="1.85544" cy="1.84115" rx="1.85544" ry="1.84115" transform="matrix(0.954732 0.297467 -0.302615 0.953113 197.266 197.48)" fill="#181818"/>
<ellipse cx="1.83964" cy="1.85693" rx="1.83964" ry="1.85693" transform="matrix(-0.0628369 0.998024 -0.998097 -0.0616676 256.719 188.58)" fill="#181818"/>
<ellipse cx="1.84429" cy="1.85232" rx="1.84429" ry="1.85232" transform="matrix(0.522664 0.852539 -0.856881 0.515514 223.047 236.427)" fill="#181818"/>
<ellipse cx="1.85637" cy="1.84021" rx="1.85637" ry="1.84021" transform="matrix(0.982013 -0.188813 0.192275 0.981341 173.148 105.807)" fill="#181818"/>
<ellipse cx="1.85637" cy="1.84021" rx="1.85637" ry="1.84021" transform="matrix(0.982013 -0.188813 0.192275 0.981341 273.426 96.9771)" fill="#181818"/>
<ellipse cx="1.84711" cy="1.8495" rx="1.84711" ry="1.8495" transform="matrix(0.660321 -0.750984 0.757118 0.653279 182.152 180.706)" fill="#181818"/>
<ellipse cx="1.85637" cy="1.84021" rx="1.85637" ry="1.84021" transform="matrix(0.982013 -0.188813 0.192275 0.981341 173.891 145.542)" fill="#181818"/>
<ellipse cx="1.85637" cy="1.84021" rx="1.85637" ry="1.84021" transform="matrix(0.982013 -0.188813 0.192275 0.981341 274.168 136.712)" fill="#181818"/>
<ellipse cx="1.84711" cy="1.8495" rx="1.84711" ry="1.8495" transform="matrix(0.660321 -0.750984 0.757118 0.653279 207.41 211.582)" fill="#181818"/>
<ellipse cx="1.85338" cy="1.84322" rx="1.85338" ry="1.84322" transform="matrix(0.891424 0.453169 -0.459984 0.887927 245.336 201.72)" fill="#181818"/>
<ellipse cx="1.84856" cy="1.84806" rx="1.84856" ry="1.84806" transform="matrix(-0.720501 0.693454 -0.700213 -0.713934 242.207 202.814)" fill="#181818"/>
<ellipse cx="1.85226" cy="1.84435" rx="1.85226" ry="1.84435" transform="matrix(-0.854806 -0.518948 0.526111 -0.850416 224.699 212.315)" fill="#181818"/>
<ellipse cx="1.85669" cy="1.83989" rx="1.85669" ry="1.83989" transform="matrix(0.991209 -0.132303 0.134776 0.990876 221.285 253.652)" fill="#181818"/>
<path d="M181.246 225.193C189.417 226.297 205.461 232.698 204.273 249.475" stroke="black" stroke-width="0.5"/>
<path d="M175.305 234.759C183.475 235.863 199.52 242.265 198.331 259.042" stroke="black" stroke-width="0.5"/>
<path d="M169.331 10.8H170.511V11.52C170.511 13.08 171.931 14.14 173.931 14.14C175.931 14.14 177.351 13.08 177.351 11.52V8.5H173.051V7.5H177.351V4.48C177.351 2.92 175.931 1.86 173.931 1.86C171.931 1.86 170.511 2.92 170.511 4.48V5.24H169.331V4.54C169.331 2.36 171.231 0.86 173.931 0.86C176.611 0.86 178.511 2.36 178.511 4.54V11.46C178.511 13.64 176.611 15.14 173.931 15.14C171.231 15.14 169.331 13.64 169.331 11.46V10.8ZM179.655 14.12H179.955C181.295 14.12 181.955 13.2 181.955 5.72V4.4H188.575V15H187.475V5.32H182.995V5.72C182.995 13.82 182.215 15.04 179.955 15.04H179.655V14.12ZM191.497 12.06V7.34C191.497 5.52 193.097 4.26 195.397 4.26C197.677 4.26 199.297 5.52 199.297 7.34V10.12H192.597V12.12C192.597 13.36 193.757 14.22 195.397 14.22C197.037 14.22 198.177 13.36 198.177 12.12V11.7H199.297V12.06C199.297 13.88 197.677 15.14 195.397 15.14C193.097 15.14 191.497 13.88 191.497 12.06ZM195.397 5.18C193.757 5.18 192.597 6.04 192.597 7.28V9.2H198.177V7.28C198.177 6.04 197.037 5.18 195.397 5.18ZM208.328 15L203.508 9.5L207.988 4.4H209.308L204.788 9.5L209.648 15H208.328ZM202.048 15V4.4H203.168V15H202.048ZM210.58 5.32V4.4H218.88V5.32H215.28V15H214.16V5.32H210.58ZM221.013 19V4.4H222.133V5.58C222.773 4.86 223.813 4.26 225.213 4.26C227.253 4.26 228.653 5.44 228.653 7.14V12.26C228.653 13.96 227.253 15.14 225.213 15.14C223.813 15.14 222.773 14.56 222.133 13.82V19H221.013ZM224.893 14.22C226.453 14.22 227.553 13.38 227.553 12.26V7.14C227.553 6.02 226.453 5.18 224.893 5.18C223.333 5.18 222.193 5.98 222.133 7.12V12.2C222.133 13.38 223.293 14.22 224.893 14.22ZM239.18 12.06C239.18 13.88 237.56 15.14 235.28 15.14C232.98 15.14 231.38 13.88 231.38 12.06V7.34C231.38 5.52 232.98 4.26 235.28 4.26C237.56 4.26 239.18 5.52 239.18 7.34V12.06ZM238.06 12.12V7.28C238.06 6.04 236.9 5.18 235.28 5.18C233.64 5.18 232.48 6.04 232.48 7.28V12.12C232.48 13.36 233.64 14.22 235.28 14.22C236.9 14.22 238.06 13.36 238.06 12.12ZM240.38 17.74V14.08H241.32C242.4 13.38 242.66 12.58 242.66 5.72V4.4H249.22V14.08H250.68V17.74H249.56V15H241.5V17.74H240.38ZM243.72 5.72C243.72 11.12 243.52 13.1 242.7 14.08H248.12V5.32H243.72V5.72Z" fill="black"/>
<path d="M2.92 38.8452H1.74V24.8452H10.92V38.8452H9.74V25.8252H2.92V38.8452ZM12.9363 37.9652H13.2363C14.5763 37.9652 15.2363 37.0452 15.2363 29.5652V28.2452H21.8563V38.8452H20.7563V29.1652H16.2763V29.5652C16.2763 37.6652 15.4963 38.8852 13.2363 38.8852H12.9363V37.9652ZM25.918 31.7052H24.818V31.1852C24.818 29.3652 26.358 28.1052 28.558 28.1052C30.738 28.1052 32.278 29.3652 32.278 31.1852V38.8452H31.178V37.6052C30.478 38.3652 29.358 38.9852 27.918 38.9852C25.918 38.9852 24.638 37.9252 24.638 36.3052V35.6852C24.638 34.0252 26.178 33.0652 28.398 32.9452L31.178 32.8052V31.1252C31.178 29.8852 30.078 29.0252 28.558 29.0252C27.018 29.0252 25.918 29.8852 25.918 31.1252V31.7052ZM31.178 36.0452V33.7252L28.418 33.8652C26.678 33.9652 25.758 34.6252 25.758 35.6252V36.3052C25.758 37.3452 26.718 38.0652 28.238 38.0652C29.878 38.0652 31.178 37.2052 31.178 36.0452ZM38.7491 28.1052C40.8691 28.1052 42.2891 29.1852 42.2891 30.7252V31.2052C42.2891 32.2052 41.6691 32.9652 40.6891 33.3852C41.9091 33.7652 42.7091 34.6252 42.7091 35.7852V36.2852C42.7091 37.8652 41.0091 38.9852 38.7691 38.9852C36.3891 38.9852 34.8691 37.7652 34.8691 36.0052V35.5452H35.9891V36.0052C35.9891 37.2252 37.0691 38.0652 38.7491 38.0652C40.3491 38.0652 41.6091 37.3052 41.6091 36.2052V35.7252C41.6091 34.6452 40.5691 33.9052 39.1491 33.9052H37.6091V32.9852H38.7091C40.1491 32.9852 41.1891 32.2852 41.1891 31.2452V30.8052C41.1891 29.7452 40.1891 29.0252 38.7291 29.0252C37.1691 29.0252 35.9891 29.8452 35.9891 31.0852V31.5452H34.8691V31.0852C34.8691 29.3252 36.5091 28.1052 38.7491 28.1052ZM45.2119 38.8452V28.2452H46.1719L50.2719 35.7852L54.3719 28.2452H55.3319V38.8452H54.2919V30.3852L50.5519 37.3052H49.9919L46.2519 30.3852V38.8452H45.2119ZM66.035 35.9052C66.035 37.7252 64.415 38.9852 62.135 38.9852C59.835 38.9852 58.235 37.7252 58.235 35.9052V31.1852C58.235 29.3652 59.835 28.1052 62.135 28.1052C64.415 28.1052 66.035 29.3652 66.035 31.1852V35.9052ZM64.915 35.9652V31.1252C64.915 29.8852 63.755 29.0252 62.135 29.0252C60.495 29.0252 59.335 29.8852 59.335 31.1252V35.9652C59.335 37.2052 60.495 38.0652 62.135 38.0652C63.755 38.0652 64.915 37.2052 64.915 35.9652ZM76.5428 35.9052C76.5428 37.7252 74.9228 38.9852 72.6428 38.9852C70.3428 38.9852 68.7428 37.7252 68.7428 35.9052V31.1852C68.7428 29.3652 70.3428 28.1052 72.6428 28.1052C74.9228 28.1052 76.5428 29.3652 76.5428 31.1852V35.9052ZM75.4228 35.9652V31.1252C75.4228 29.8852 74.2628 29.0252 72.6428 29.0252C71.0028 29.0252 69.8428 29.8852 69.8428 31.1252V35.9652C69.8428 37.2052 71.0028 38.0652 72.6428 38.0652C74.2628 38.0652 75.4228 37.2052 75.4228 35.9652ZM83.1706 38.9852C80.8906 38.9852 79.2706 37.7252 79.2706 35.9052V28.6452C79.2706 26.6252 80.4306 25.2652 82.5306 25.0452L86.5706 24.6452L86.6706 25.6052L82.7506 26.0252C81.2506 26.1652 80.3906 27.1252 80.3906 28.6452V29.6252C80.9906 28.8052 82.1106 28.3052 83.5706 28.3052C85.6306 28.3052 87.0706 29.4652 87.0706 31.1852V35.9052C87.0706 37.7252 85.4506 38.9852 83.1706 38.9852ZM83.1706 38.0652C84.8106 38.0652 85.9706 37.2052 85.9706 35.9652V31.1852C85.9706 30.0652 84.8506 29.2252 83.2306 29.2252C81.6106 29.2252 80.3906 30.0052 80.3906 31.1652V35.9652C80.3906 37.2052 81.5306 38.0652 83.1706 38.0652ZM89.9775 42.8452V28.2452H91.0975V29.4252C91.7375 28.7052 92.7775 28.1052 94.1775 28.1052C96.2175 28.1052 97.6175 29.2852 97.6175 30.9852V36.1052C97.6175 37.8052 96.2175 38.9852 94.1775 38.9852C92.7775 38.9852 91.7375 38.4052 91.0975 37.6652V42.8452H89.9775ZM93.8575 38.0652C95.4175 38.0652 96.5175 37.2252 96.5175 36.1052V30.9852C96.5175 29.8652 95.4175 29.0252 93.8575 29.0252C92.2975 29.0252 91.1575 29.8252 91.0975 30.9652V36.0452C91.0975 37.2252 92.2575 38.0652 93.8575 38.0652ZM101.309 31.7052H100.209V31.1852C100.209 29.3652 101.749 28.1052 103.949 28.1052C106.129 28.1052 107.669 29.3652 107.669 31.1852V38.8452H106.569V37.6052C105.869 38.3652 104.749 38.9852 103.309 38.9852C101.309 38.9852 100.029 37.9252 100.029 36.3052V35.6852C100.029 34.0252 101.569 33.0652 103.789 32.9452L106.569 32.8052V31.1252C106.569 29.8852 105.469 29.0252 103.949 29.0252C102.409 29.0252 101.309 29.8852 101.309 31.1252V31.7052ZM106.569 36.0452V33.7252L103.809 33.8652C102.069 33.9652 101.149 34.6252 101.149 35.6252V36.3052C101.149 37.3452 102.109 38.0652 103.629 38.0652C105.269 38.0652 106.569 37.2052 106.569 36.0452ZM114.14 28.1052C116.26 28.1052 117.68 29.1852 117.68 30.7252V31.2052C117.68 32.2052 117.06 32.9652 116.08 33.3852C117.3 33.7652 118.1 34.6252 118.1 35.7852V36.2852C118.1 37.8652 116.4 38.9852 114.16 38.9852C111.78 38.9852 110.26 37.7652 110.26 36.0052V35.5452H111.38V36.0052C111.38 37.2252 112.46 38.0652 114.14 38.0652C115.74 38.0652 117 37.3052 117 36.2052V35.7252C117 34.6452 115.96 33.9052 114.54 33.9052H113V32.9852H114.1C115.54 32.9852 116.58 32.2852 116.58 31.2452V30.8052C116.58 29.7452 115.58 29.0252 114.12 29.0252C112.56 29.0252 111.38 29.8452 111.38 31.0852V31.5452H110.26V31.0852C110.26 29.3252 111.9 28.1052 114.14 28.1052ZM128.109 28.2452L122.529 42.8452H121.449L122.949 38.8852L119.129 28.2452H120.209L123.509 37.4452L127.029 28.2452H128.109ZM141.217 35.9052C141.217 37.7252 139.717 38.9852 137.597 38.9852C135.477 38.9852 133.977 37.7252 133.977 35.9052V33.8452H131.117V38.8452H129.997V28.2452H131.117V32.9252H133.977V31.1852C133.977 29.3652 135.477 28.1052 137.597 28.1052C139.717 28.1052 141.217 29.3652 141.217 31.1852V35.9052ZM140.097 35.9652V31.1252C140.097 29.8852 139.037 29.0252 137.597 29.0252C136.137 29.0252 135.077 29.8852 135.077 31.1252V35.9652C135.077 37.2052 136.137 38.0652 137.597 38.0652C139.037 38.0652 140.097 37.2052 140.097 35.9652ZM158.238 41.5852V38.8452H144.118V28.2452H145.238V37.9252H150.258V28.2452H151.378V37.9252H156.398V28.2452H157.498V37.9252H159.358V41.5852H158.238ZM167.911 38.8452V30.1252L162.031 38.8452H161.091V28.2452H162.211V36.9652L168.071 28.2452H169.011V38.8452H167.911ZM178.907 38.8452V30.1252L173.027 38.8452H172.087V28.2452H173.207V36.9652L179.067 28.2452H180.007V38.8452H178.907ZM177.847 24.6452H178.747V24.9652C178.747 26.1252 177.647 26.9452 176.067 26.9452C174.467 26.9452 173.367 26.1252 173.367 24.9652V24.6452H174.267V25.0652C174.267 25.7052 175.007 26.2052 176.067 26.2052C177.107 26.2052 177.847 25.7052 177.847 25.0652V24.6452ZM1.54 58.8452V48.2452H7.54V49.1652H2.66V58.8452H1.54ZM10.332 51.7052H9.23203V51.1852C9.23203 49.3652 10.772 48.1052 12.972 48.1052C15.152 48.1052 16.692 49.3652 16.692 51.1852V58.8452H15.592V57.6052C14.892 58.3652 13.772 58.9852 12.332 58.9852C10.332 58.9852 9.05203 57.9252 9.05203 56.3052V55.6852C9.05203 54.0252 10.592 53.0652 12.812 52.9452L15.592 52.8052V51.1252C15.592 49.8852 14.492 49.0252 12.972 49.0252C11.432 49.0252 10.332 49.8852 10.332 51.1252V51.7052ZM15.592 56.0452V53.7252L12.832 53.8652C11.092 53.9652 10.172 54.6252 10.172 55.6252V56.3052C10.172 57.3452 11.132 58.0652 12.652 58.0652C14.292 58.0652 15.592 57.2052 15.592 56.0452ZM23.1631 48.1052C25.2831 48.1052 26.7031 49.1852 26.7031 50.7252V51.2052C26.7031 52.2052 26.0831 52.9652 25.1031 53.3852C26.3231 53.7652 27.1231 54.6252 27.1231 55.7852V56.2852C27.1231 57.8652 25.4231 58.9852 23.1831 58.9852C20.8031 58.9852 19.2831 57.7652 19.2831 56.0052V55.5452H20.4031V56.0052C20.4031 57.2252 21.4831 58.0652 23.1631 58.0652C24.7631 58.0652 26.0231 57.3052 26.0231 56.2052V55.7252C26.0231 54.6452 24.9831 53.9052 23.5631 53.9052H22.0231V52.9852H23.1231C24.5631 52.9852 25.6031 52.2852 25.6031 51.2452V50.8052C25.6031 49.7452 24.6031 49.0252 23.1431 49.0252C21.5831 49.0252 20.4031 49.8452 20.4031 51.0852V51.5452H19.2831V51.0852C19.2831 49.3252 20.9231 48.1052 23.1631 48.1052Z" fill="black"/>
<path d="M34.92 109.824H33.74V95.8242H42.92V109.824H41.74V96.8042H34.92V109.824ZM53.8163 106.884C53.8163 108.704 52.1963 109.964 49.9163 109.964C47.6163 109.964 46.0163 108.704 46.0163 106.884V102.164C46.0163 100.344 47.6163 99.0842 49.9163 99.0842C52.1963 99.0842 53.8163 100.344 53.8163 102.164V106.884ZM52.6963 106.944V102.104C52.6963 100.864 51.5363 100.004 49.9163 100.004C48.2763 100.004 47.1163 100.864 47.1163 102.104V106.944C47.1163 108.184 48.2763 109.044 49.9163 109.044C51.5363 109.044 52.6963 108.184 52.6963 106.944ZM56.7041 113.824V99.2242H57.8241V100.404C58.4641 99.6842 59.5041 99.0842 60.9041 99.0842C62.9441 99.0842 64.3441 100.264 64.3441 101.964V107.084C64.3441 108.784 62.9441 109.964 60.9041 109.964C59.5041 109.964 58.4641 109.384 57.8241 108.644V113.824H56.7041ZM60.5841 109.044C62.1441 109.044 63.2441 108.204 63.2441 107.084V101.964C63.2441 100.844 62.1441 100.004 60.5841 100.004C59.0241 100.004 57.8841 100.804 57.8241 101.944V107.024C57.8241 108.204 58.9841 109.044 60.5841 109.044ZM74.8709 106.884C74.8709 108.704 73.2509 109.964 70.9709 109.964C68.6709 109.964 67.0709 108.704 67.0709 106.884V102.164C67.0709 100.344 68.6709 99.0842 70.9709 99.0842C73.2509 99.0842 74.8709 100.344 74.8709 102.164V106.884ZM73.7509 106.944V102.104C73.7509 100.864 72.5909 100.004 70.9709 100.004C69.3309 100.004 68.1709 100.864 68.1709 102.104V106.944C68.1709 108.184 69.3309 109.044 70.9709 109.044C72.5909 109.044 73.7509 108.184 73.7509 106.944ZM77.7588 109.824V99.2242H78.8788V108.904H83.8988V99.2242H85.0188V108.904H90.0388V99.2242H91.1388V109.824H77.7588ZM101.863 106.884C101.863 108.704 100.243 109.964 97.9631 109.964C95.6631 109.964 94.0631 108.704 94.0631 106.884V102.164C94.0631 100.344 95.6631 99.0842 97.9631 99.0842C100.243 99.0842 101.863 100.344 101.863 102.164V106.884ZM100.743 106.944V102.104C100.743 100.864 99.5831 100.004 97.9631 100.004C96.3231 100.004 95.1631 100.864 95.1631 102.104V106.944C95.1631 108.184 96.3231 109.044 97.9631 109.044C99.5831 109.044 100.743 108.184 100.743 106.944ZM111.031 109.824L106.211 104.324L110.691 99.2242H112.011L107.491 104.324L112.351 109.824H111.031ZM104.751 109.824V99.2242H105.871V109.824H104.751Z" fill="black"/>
<path d="M27.92 195.666H26.74V181.666H35.92V195.666H34.74V182.646H27.92V195.666ZM37.9363 194.786H38.2363C39.5763 194.786 40.2363 193.866 40.2363 186.386V185.066H46.8563V195.666H45.7563V185.986H41.2763V186.386C41.2763 194.486 40.4963 195.706 38.2363 195.706H37.9363V194.786ZM50.918 188.526H49.818V188.006C49.818 186.186 51.358 184.926 53.558 184.926C55.738 184.926 57.278 186.186 57.278 188.006V195.666H56.178V194.426C55.478 195.186 54.358 195.806 52.918 195.806C50.918 195.806 49.638 194.746 49.638 193.126V192.506C49.638 190.846 51.178 189.886 53.398 189.766L56.178 189.626V187.946C56.178 186.706 55.078 185.846 53.558 185.846C52.018 185.846 50.918 186.706 50.918 187.946V188.526ZM56.178 192.866V190.546L53.418 190.686C51.678 190.786 50.758 191.446 50.758 192.446V193.126C50.758 194.166 51.718 194.886 53.238 194.886C54.878 194.886 56.178 194.026 56.178 192.866ZM63.7491 184.926C65.8691 184.926 67.2891 186.006 67.2891 187.546V188.026C67.2891 189.026 66.6691 189.786 65.6891 190.206C66.9091 190.586 67.7091 191.446 67.7091 192.606V193.106C67.7091 194.686 66.0091 195.806 63.7691 195.806C61.3891 195.806 59.8691 194.586 59.8691 192.826V192.366H60.9891V192.826C60.9891 194.046 62.0691 194.886 63.7491 194.886C65.3491 194.886 66.6091 194.126 66.6091 193.026V192.546C66.6091 191.466 65.5691 190.726 64.1491 190.726H62.6091V189.806H63.7091C65.1491 189.806 66.1891 189.106 66.1891 188.066V187.626C66.1891 186.566 65.1891 185.846 63.7291 185.846C62.1691 185.846 60.9891 186.666 60.9891 187.906V188.366H59.8691V187.906C59.8691 186.146 61.5091 184.926 63.7491 184.926ZM70.2119 195.666V185.066H71.1719L75.2719 192.606L79.3719 185.066H80.3319V195.666H79.2919V187.206L75.5519 194.126H74.9919L71.2519 187.206V195.666H70.2119ZM84.375 188.526H83.275V188.006C83.275 186.186 84.815 184.926 87.015 184.926C89.195 184.926 90.735 186.186 90.735 188.006V195.666H89.635V194.426C88.935 195.186 87.815 195.806 86.375 195.806C84.375 195.806 83.095 194.746 83.095 193.126V192.506C83.095 190.846 84.635 189.886 86.855 189.766L89.635 189.626V187.946C89.635 186.706 88.535 185.846 87.015 185.846C85.475 185.846 84.375 186.706 84.375 187.946V188.526ZM89.635 192.866V190.546L86.875 190.686C85.135 190.786 84.215 191.446 84.215 192.446V193.126C84.215 194.166 85.175 194.886 86.695 194.886C88.335 194.886 89.635 194.026 89.635 192.866Z" fill="black"/>
<path d="M322.56 250.357H323.72V251.017C323.72 253.197 321.82 254.697 319.14 254.697C316.44 254.697 314.54 253.197 314.54 251.017V244.097C314.54 241.917 316.44 240.417 319.14 240.417C321.82 240.417 323.72 241.917 323.72 244.097V244.797H322.56V244.037C322.56 242.477 321.14 241.417 319.14 241.417C317.14 241.417 315.72 242.477 315.72 244.037V251.077C315.72 252.637 317.14 253.697 319.14 253.697C321.14 253.697 322.56 252.637 322.56 251.077V250.357ZM326.571 254.557V243.957H329.951C332.271 243.957 333.711 244.997 333.711 246.517V246.917C333.711 247.897 333.111 248.657 332.051 249.097C333.351 249.497 334.131 250.377 334.131 251.497V251.917C334.131 253.477 332.691 254.557 330.371 254.557H326.571ZM333.011 251.417C333.011 250.337 332.031 249.617 330.351 249.617H327.691V253.637H330.351C332.031 253.637 333.011 252.917 333.011 251.837V251.417ZM332.591 246.597C332.591 245.577 331.611 244.877 329.931 244.877H327.691V248.697H329.931C331.611 248.697 332.591 247.997 332.591 246.977V246.597ZM337.59 247.417H336.49V246.897C336.49 245.077 338.03 243.817 340.23 243.817C342.41 243.817 343.95 245.077 343.95 246.897V254.557H342.85V253.317C342.15 254.077 341.03 254.697 339.59 254.697C337.59 254.697 336.31 253.637 336.31 252.017V251.397C336.31 249.737 337.85 248.777 340.07 248.657L342.85 248.517V246.837C342.85 245.597 341.75 244.737 340.23 244.737C338.69 244.737 337.59 245.597 337.59 246.837V247.417ZM342.85 251.757V249.437L340.09 249.577C338.35 249.677 337.43 250.337 337.43 251.337V252.017C337.43 253.057 338.39 253.777 339.91 253.777C341.55 253.777 342.85 252.917 342.85 251.757ZM347.001 258.557V243.957H348.121V245.137C348.761 244.417 349.801 243.817 351.201 243.817C353.241 243.817 354.641 244.997 354.641 246.697V251.817C354.641 253.517 353.241 254.697 351.201 254.697C349.801 254.697 348.761 254.117 348.121 253.377V258.557H347.001ZM350.881 253.777C352.441 253.777 353.541 252.937 353.541 251.817V246.697C353.541 245.577 352.441 244.737 350.881 244.737C349.321 244.737 348.181 245.537 348.121 246.677V251.757C348.121 252.937 349.281 253.777 350.881 253.777ZM365.168 251.617C365.168 253.437 363.548 254.697 361.268 254.697C358.968 254.697 357.368 253.437 357.368 251.617V246.897C357.368 245.077 358.968 243.817 361.268 243.817C363.548 243.817 365.168 245.077 365.168 246.897V251.617ZM364.048 251.677V246.837C364.048 245.597 362.888 244.737 361.268 244.737C359.628 244.737 358.468 245.597 358.468 246.837V251.677C358.468 252.917 359.628 253.777 361.268 253.777C362.888 253.777 364.048 252.917 364.048 251.677ZM375.036 243.957V254.557H373.916V249.757C373.476 249.937 372.536 250.217 371.236 250.217C368.756 250.217 367.596 249.077 367.596 247.417V243.957H368.696V247.417C368.696 248.577 369.556 249.297 371.436 249.297C372.556 249.297 373.476 249.017 373.916 248.857V243.957H375.036ZM384.654 254.557V249.557H379.234V254.557H378.114V243.957H379.234V248.637H384.654V243.957H385.754V254.557H384.654ZM389.816 247.417H388.716V246.897C388.716 245.077 390.256 243.817 392.456 243.817C394.636 243.817 396.176 245.077 396.176 246.897V254.557H395.076V253.317C394.376 254.077 393.256 254.697 391.816 254.697C389.816 254.697 388.536 253.637 388.536 252.017V251.397C388.536 249.737 390.076 248.777 392.296 248.657L395.076 248.517V246.837C395.076 245.597 393.976 244.737 392.456 244.737C390.916 244.737 389.816 245.597 389.816 246.837V247.417ZM395.076 251.757V249.437L392.316 249.577C390.576 249.677 389.656 250.337 389.656 251.337V252.017C389.656 253.057 390.616 253.777 392.136 253.777C393.776 253.777 395.076 252.917 395.076 251.757ZM406.068 243.957V254.557H404.968V250.137H402.648L399.748 254.557H398.588L401.508 250.057C399.828 249.757 398.808 248.777 398.808 247.277V246.817C398.808 245.037 400.268 243.957 402.568 243.957H406.068ZM399.908 247.337C399.908 248.537 400.928 249.217 402.568 249.217H404.968V244.877H402.568C400.928 244.877 399.908 245.557 399.908 246.757V247.337ZM314.54 274.557V263.957H317.92C320.24 263.957 321.68 264.997 321.68 266.517V266.917C321.68 267.897 321.08 268.657 320.02 269.097C321.32 269.497 322.1 270.377 322.1 271.497V271.917C322.1 273.477 320.66 274.557 318.34 274.557H314.54ZM320.98 271.417C320.98 270.337 320 269.617 318.32 269.617H315.66V273.637H318.32C320 273.637 320.98 272.917 320.98 271.837V271.417ZM320.56 266.597C320.56 265.577 319.58 264.877 317.9 264.877H315.66V268.697H317.9C319.58 268.697 320.56 267.997 320.56 266.977V266.597ZM325.559 267.417H324.459V266.897C324.459 265.077 325.999 263.817 328.199 263.817C330.379 263.817 331.919 265.077 331.919 266.897V274.557H330.819V273.317C330.119 274.077 328.999 274.697 327.559 274.697C325.559 274.697 324.279 273.637 324.279 272.017V271.397C324.279 269.737 325.819 268.777 328.039 268.657L330.819 268.517V266.837C330.819 265.597 329.719 264.737 328.199 264.737C326.659 264.737 325.559 265.597 325.559 266.837V267.417ZM330.819 271.757V269.437L328.059 269.577C326.319 269.677 325.399 270.337 325.399 271.337V272.017C325.399 273.057 326.359 273.777 327.879 273.777C329.519 273.777 330.819 272.917 330.819 271.757ZM341.51 274.557V269.557H336.09V274.557H334.97V263.957H336.09V268.637H341.51V263.957H342.61V274.557H341.51ZM352.252 274.557V269.557H346.832V274.557H345.712V263.957H346.832V268.637H352.252V263.957H353.352V274.557H352.252ZM357.414 267.417H356.314V266.897C356.314 265.077 357.854 263.817 360.054 263.817C362.234 263.817 363.774 265.077 363.774 266.897V274.557H362.674V273.317C361.974 274.077 360.854 274.697 359.414 274.697C357.414 274.697 356.134 273.637 356.134 272.017V271.397C356.134 269.737 357.674 268.777 359.894 268.657L362.674 268.517V266.837C362.674 265.597 361.574 264.737 360.054 264.737C358.514 264.737 357.414 265.597 357.414 266.837V267.417ZM362.674 271.757V269.437L359.914 269.577C358.174 269.677 357.254 270.337 357.254 271.337V272.017C357.254 273.057 358.214 273.777 359.734 273.777C361.374 273.777 362.674 272.917 362.674 271.757Z" fill="black"/>
<path d="M47.543 204.59C94.3394 199.685 195.137 199.292 223.958 236.967" stroke="black" stroke-width="0.5"/>
<path d="M7.88 247.403C10.34 247.403 12.06 248.723 12.06 250.623V251.523C12.06 252.803 11.08 253.783 9.6 254.263C11.38 254.683 12.56 255.803 12.56 257.303V258.243C12.56 260.263 10.62 261.683 7.94 261.683C5.18 261.683 3.32 260.183 3.32 258.003V257.343H4.5V258.063C4.5 259.623 5.88 260.683 7.94 260.683C9.92 260.683 11.38 259.683 11.38 258.223V257.203C11.38 255.783 9.96 254.803 7.98 254.803H6.4V253.823H7.46C9.46 253.823 10.88 252.903 10.88 251.603V250.663C10.88 249.323 9.64 248.403 7.88 248.403C5.92 248.403 4.5 249.463 4.5 251.023V251.783H3.32V251.083C3.32 248.903 5.22 247.403 7.88 247.403ZM16.043 254.403H14.943V253.883C14.943 252.063 16.483 250.803 18.683 250.803C20.863 250.803 22.403 252.063 22.403 253.883V261.543H21.303V260.303C20.603 261.063 19.483 261.683 18.043 261.683C16.043 261.683 14.763 260.623 14.763 259.003V258.383C14.763 256.723 16.303 255.763 18.523 255.643L21.303 255.503V253.823C21.303 252.583 20.203 251.723 18.683 251.723C17.143 251.723 16.043 252.583 16.043 253.823V254.403ZM21.303 258.743V256.423L18.543 256.563C16.803 256.663 15.883 257.323 15.883 258.323V259.003C15.883 260.043 16.843 260.763 18.363 260.763C20.003 260.763 21.303 259.903 21.303 258.743ZM39.5741 264.283V261.543H25.4541V250.943H26.5741V260.623H31.5941V250.943H32.7141V260.623H37.7341V250.943H38.8341V260.623H40.6941V264.283H39.5741ZM49.2467 261.543V252.823L43.3667 261.543H42.4267V250.943H43.5467V259.663L49.4067 250.943H50.3467V261.543H49.2467ZM52.4828 251.863V250.943H60.7828V251.863H57.1828V261.543H56.0628V251.863H52.4828ZM69.455 261.543V256.543H64.035V261.543H62.915V250.943H64.035V255.623H69.455V250.943H70.555V261.543H69.455ZM73.6572 261.543V250.943H74.7772V255.043H77.3372C79.6172 255.043 81.0972 256.243 81.0972 258.043V258.543C81.0972 260.363 79.6172 261.543 77.3372 261.543H73.6572ZM77.3172 255.963H74.7772V260.623H77.3172C78.9572 260.623 79.9772 259.843 79.9772 258.603V257.983C79.9772 256.763 78.9572 255.963 77.3172 255.963ZM82.7172 261.543V250.943H83.8172V261.543H82.7172ZM93.7389 261.543V252.823L87.8589 261.543H86.9189V250.943H88.0389V259.663L93.8989 250.943H94.8389V261.543H93.7389ZM92.6789 247.343H93.5789V247.663C93.5789 248.823 92.4789 249.643 90.8989 249.643C89.2989 249.643 88.1989 248.823 88.1989 247.663V247.343H89.0989V247.763C89.0989 248.403 89.8389 248.903 90.8989 248.903C91.9389 248.903 92.6789 248.403 92.6789 247.763V247.343ZM102.212 261.543V250.943H108.212V251.863H103.332V261.543H102.212ZM111.004 254.403H109.904V253.883C109.904 252.063 111.444 250.803 113.644 250.803C115.824 250.803 117.364 252.063 117.364 253.883V261.543H116.264V260.303C115.564 261.063 114.444 261.683 113.004 261.683C111.004 261.683 109.724 260.623 109.724 259.003V258.383C109.724 256.723 111.264 255.763 113.484 255.643L116.264 255.503V253.823C116.264 252.583 115.164 251.723 113.644 251.723C112.104 251.723 111.004 252.583 111.004 253.823V254.403ZM116.264 258.743V256.423L113.504 256.563C111.764 256.663 110.844 257.323 110.844 258.323V259.003C110.844 260.043 111.804 260.763 113.324 260.763C114.964 260.763 116.264 259.903 116.264 258.743ZM123.835 250.803C125.955 250.803 127.375 251.883 127.375 253.423V253.903C127.375 254.903 126.755 255.663 125.775 256.083C126.995 256.463 127.795 257.323 127.795 258.483V258.983C127.795 260.563 126.095 261.683 123.855 261.683C121.475 261.683 119.955 260.463 119.955 258.703V258.243H121.075V258.703C121.075 259.923 122.155 260.763 123.835 260.763C125.435 260.763 126.695 260.003 126.695 258.903V258.423C126.695 257.343 125.655 256.603 124.235 256.603H122.695V255.683H123.795C125.235 255.683 126.275 254.983 126.275 253.943V253.503C126.275 252.443 125.275 251.723 123.815 251.723C122.255 251.723 121.075 252.543 121.075 253.783V254.243H119.955V253.783C119.955 252.023 121.595 250.803 123.835 250.803Z" fill="black"/>
<path d="M141.92 303.442H140.74V289.442H141.92V295.982H148.82V289.442H149.98V303.442H148.82V296.962H141.92V303.442ZM154.215 296.302H153.115V295.782C153.115 293.962 154.655 292.702 156.855 292.702C159.035 292.702 160.575 293.962 160.575 295.782V303.442H159.475V302.202C158.775 302.962 157.655 303.582 156.215 303.582C154.215 303.582 152.935 302.522 152.935 300.902V300.282C152.935 298.622 154.475 297.662 156.695 297.542L159.475 297.402V295.722C159.475 294.482 158.375 293.622 156.855 293.622C155.315 293.622 154.215 294.482 154.215 295.722V296.302ZM159.475 300.642V298.322L156.715 298.462C154.975 298.562 154.055 299.222 154.055 300.222V300.902C154.055 301.942 155.015 302.662 156.535 302.662C158.175 302.662 159.475 301.802 159.475 300.642ZM170.166 303.442V293.762H164.746V303.442H163.626V292.842H171.266V303.442H170.166ZM173.108 302.562H173.408C174.748 302.562 175.408 301.642 175.408 294.162V292.842H182.028V303.442H180.928V293.762H176.448V294.162C176.448 302.262 175.668 303.482 173.408 303.482H173.108V302.562ZM186.09 296.302H184.99V295.782C184.99 293.962 186.53 292.702 188.73 292.702C190.91 292.702 192.45 293.962 192.45 295.782V303.442H191.35V302.202C190.65 302.962 189.53 303.582 188.09 303.582C186.09 303.582 184.81 302.522 184.81 300.902V300.282C184.81 298.622 186.35 297.662 188.57 297.542L191.35 297.402V295.722C191.35 294.482 190.25 293.622 188.73 293.622C187.19 293.622 186.09 294.482 186.09 295.722V296.302ZM191.35 300.642V298.322L188.59 298.462C186.85 298.562 185.93 299.222 185.93 300.222V300.902C185.93 301.942 186.89 302.662 188.41 302.662C190.05 302.662 191.35 301.802 191.35 300.642ZM195.501 303.442V292.842H198.881C201.201 292.842 202.641 293.882 202.641 295.402V295.802C202.641 296.782 202.041 297.542 200.981 297.982C202.281 298.382 203.061 299.262 203.061 300.382V300.802C203.061 302.362 201.621 303.442 199.301 303.442H195.501ZM201.941 300.302C201.941 299.222 200.961 298.502 199.281 298.502H196.621V302.522H199.281C200.961 302.522 201.941 301.802 201.941 300.722V300.302ZM201.521 295.482C201.521 294.462 200.541 293.762 198.861 293.762H196.621V297.582H198.861C200.541 297.582 201.521 296.882 201.521 295.862V295.482ZM203.948 302.562H204.248C205.588 302.562 206.248 301.642 206.248 294.162V292.842H212.868V303.442H211.768V293.762H207.288V294.162C207.288 302.262 206.508 303.482 204.248 303.482H203.948V302.562ZM215.79 300.502V295.782C215.79 293.962 217.39 292.702 219.69 292.702C221.97 292.702 223.59 293.962 223.59 295.782V298.562H216.89V300.562C216.89 301.802 218.05 302.662 219.69 302.662C221.33 302.662 222.47 301.802 222.47 300.562V300.142H223.59V300.502C223.59 302.322 221.97 303.582 219.69 303.582C217.39 303.582 215.79 302.322 215.79 300.502ZM219.69 293.622C218.05 293.622 216.89 294.482 216.89 295.722V297.642H222.47V295.722C222.47 294.482 221.33 293.622 219.69 293.622ZM232.881 303.442V298.442H227.461V303.442H226.341V292.842H227.461V297.522H232.881V292.842H233.981V303.442H232.881ZM243.623 303.442V298.442H238.203V303.442H237.083V292.842H238.203V297.522H243.623V292.842H244.723V303.442H243.623ZM247.825 303.442V292.842H248.945V296.942H251.505C253.785 296.942 255.265 298.142 255.265 299.942V300.442C255.265 302.262 253.785 303.442 251.505 303.442H247.825ZM251.485 297.862H248.945V302.522H251.485C253.125 302.522 254.145 301.742 254.145 300.502V299.882C254.145 298.662 253.125 297.862 251.485 297.862ZM256.885 303.442V292.842H257.985V303.442H256.885ZM267.907 303.442V294.722L262.027 303.442H261.087V292.842H262.207V301.562L268.067 292.842H269.007V303.442H267.907ZM266.847 289.242H267.747V289.562C267.747 290.722 266.647 291.542 265.067 291.542C263.467 291.542 262.367 290.722 262.367 289.562V289.242H263.267V289.662C263.267 290.302 264.007 290.802 265.067 290.802C266.107 290.802 266.847 290.302 266.847 289.662V289.242ZM147.04 316.382V315.722C147.04 314.482 145.9 313.622 144.26 313.622C142.62 313.622 141.46 314.482 141.46 315.722V320.562C141.46 321.802 142.62 322.662 144.26 322.662C145.9 322.662 147.04 321.802 147.04 320.562V319.902H148.16V320.502C148.16 322.322 146.54 323.582 144.26 323.582C141.96 323.582 140.36 322.322 140.36 320.502V315.782C140.36 313.962 141.96 312.702 144.26 312.702C146.54 312.702 148.16 313.962 148.16 315.782V316.382H147.04ZM149.573 322.562H149.873C151.213 322.562 151.873 321.642 151.873 314.162V312.842H158.493V323.442H157.393V313.762H152.913V314.162C152.913 322.262 152.133 323.482 149.873 323.482H149.573V322.562ZM169.215 320.502C169.215 322.322 167.595 323.582 165.315 323.582C163.015 323.582 161.415 322.322 161.415 320.502V315.782C161.415 313.962 163.015 312.702 165.315 312.702C167.595 312.702 169.215 313.962 169.215 315.782V320.502ZM168.095 320.562V315.722C168.095 314.482 166.935 313.622 165.315 313.622C163.675 313.622 162.515 314.482 162.515 315.722V320.562C162.515 321.802 163.675 322.662 165.315 322.662C166.935 322.662 168.095 321.802 168.095 320.562ZM178.923 323.442V314.722L173.043 323.442H172.103V312.842H173.223V321.562L179.083 312.842H180.023V323.442H178.923ZM177.863 309.242H178.763V309.562C178.763 310.722 177.663 311.542 176.083 311.542C174.483 311.542 173.383 310.722 173.383 309.562V309.242H174.283V309.662C174.283 310.302 175.023 310.802 176.083 310.802C177.123 310.802 177.863 310.302 177.863 309.662V309.242ZM194.215 323.442V314.722L188.335 323.442H187.395V312.842H188.515V321.562L194.375 312.842H195.315V323.442H194.215ZM201.528 326.182V322.522H202.468C203.548 321.822 203.808 321.022 203.808 314.162V312.842H210.368V322.522H211.828V326.182H210.708V323.442H202.648V326.182H201.528ZM204.868 314.162C204.868 319.562 204.668 321.542 203.848 322.522H209.268V313.762H204.868V314.162ZM213.348 320.502V315.782C213.348 313.962 214.948 312.702 217.248 312.702C219.528 312.702 221.148 313.962 221.148 315.782V318.562H214.448V320.562C214.448 321.802 215.608 322.662 217.248 322.662C218.888 322.662 220.028 321.802 220.028 320.562V320.142H221.148V320.502C221.148 322.322 219.528 323.582 217.248 323.582C214.948 323.582 213.348 322.322 213.348 320.502ZM217.248 313.622C215.608 313.622 214.448 314.482 214.448 315.722V317.642H220.028V315.722C220.028 314.482 218.888 313.622 217.248 313.622ZM222.569 313.762V312.842H230.869V313.762H227.269V323.442H226.149V313.762H222.569ZM233.727 316.302H232.627V315.782C232.627 313.962 234.167 312.702 236.367 312.702C238.547 312.702 240.087 313.962 240.087 315.782V323.442H238.987V322.202C238.287 322.962 237.167 323.582 235.727 323.582C233.727 323.582 232.447 322.522 232.447 320.902V320.282C232.447 318.622 233.987 317.662 236.207 317.542L238.987 317.402V315.722C238.987 314.482 237.887 313.622 236.367 313.622C234.827 313.622 233.727 314.482 233.727 315.722V316.302ZM238.987 320.642V318.322L236.227 318.462C234.487 318.562 233.567 319.222 233.567 320.222V320.902C233.567 321.942 234.527 322.662 236.047 322.662C237.687 322.662 238.987 321.802 238.987 320.642ZM241.878 322.562H242.178C243.518 322.562 244.178 321.642 244.178 314.162V312.842H250.798V323.442H249.698V313.762H245.218V314.162C245.218 322.262 244.438 323.482 242.178 323.482H241.878V322.562ZM253.899 323.442V312.842H255.019V316.942H257.579C259.859 316.942 261.339 318.142 261.339 319.942V320.442C261.339 322.262 259.859 323.442 257.579 323.442H253.899ZM257.559 317.862H255.019V322.522H257.559C259.199 322.522 260.219 321.742 260.219 320.502V319.882C260.219 318.662 259.199 317.862 257.559 317.862Z" fill="black"/>
<path d="M223.21 59.2637C243.885 42.9528 261.613 12.6121 167.129 21.7364" stroke="#383838" stroke-width="0.5"/>
<path d="M164.902 48.5948C180.873 42.7082 211.699 43.5912 207.242 94.2163" stroke="#383838" stroke-width="0.5"/>
<path d="M50.1371 114.452C48.6515 119.97 65.4381 127.697 171.213 126.225" stroke="#383838" stroke-width="0.5"/>
<path d="M24.5117 266.768C72.1747 270.815 170.62 274.053 183.1 254.627" stroke="#383838" stroke-width="0.5"/>
<path d="M307.889 268.975C290.805 266.032 255.819 260.587 252.551 262.353" stroke="#383838" stroke-width="0.5"/>
<path d="M473 166C460.781 90.5049 395.875 -38.8302 234 47.7905" stroke="#383838" stroke-width="0.5"/>
<path d="M310.5 263.5C360 285.833 462 303.5 474 195.5" stroke="#383838" stroke-width="0.5"/>
<path d="M458 161.117C458 155.594 462.477 151.117 468 151.117H608C613.523 151.117 618 155.594 618 161.117V235.941C618 241.464 613.523 245.941 608 245.941H468C462.477 245.941 458 241.464 458 235.941V161.117Z" fill="#47A4B5"/>
<path d="M498.279 193.566H497.219V179.566H498.399V191.426L505.419 179.566H506.459V193.566H505.279V181.726L498.279 193.566ZM516.233 186.506V185.846C516.233 184.606 515.093 183.746 513.453 183.746C511.813 183.746 510.653 184.606 510.653 185.846V190.686C510.653 191.926 511.813 192.786 513.453 192.786C515.093 192.786 516.233 191.926 516.233 190.686V190.026H517.353V190.626C517.353 192.446 515.733 193.706 513.453 193.706C511.153 193.706 509.553 192.446 509.553 190.626V185.906C509.553 184.086 511.153 182.826 513.453 182.826C515.733 182.826 517.353 184.086 517.353 185.906V186.506H516.233ZM519.086 183.886V182.966H527.386V183.886H523.786V193.566H522.666V183.886H519.086ZM536.904 190.626C536.904 192.446 535.284 193.706 533.004 193.706C530.704 193.706 529.104 192.446 529.104 190.626V185.906C529.104 184.086 530.704 182.826 533.004 182.826C535.284 182.826 536.904 184.086 536.904 185.906V190.626ZM535.784 190.686V185.846C535.784 184.606 534.624 183.746 533.004 183.746C531.364 183.746 530.204 184.606 530.204 185.846V190.686C530.204 191.926 531.364 192.786 533.004 192.786C534.624 192.786 535.784 191.926 535.784 190.686ZM546.772 182.966V193.566H545.652V188.766C545.212 188.946 544.272 189.226 542.972 189.226C540.492 189.226 539.332 188.086 539.332 186.426V182.966H540.432V186.426C540.432 187.586 541.292 188.306 543.172 188.306C544.292 188.306 545.212 188.026 545.652 187.866V182.966H546.772ZM556.391 193.566V188.566H550.971V193.566H549.851V182.966H550.971V187.646H556.391V182.966H557.491V193.566H556.391ZM567.413 193.566V184.846L561.533 193.566H560.593V182.966H561.713V191.686L567.573 182.966H568.513V193.566H567.413ZM577.869 193.566L573.049 188.066L577.529 182.966H578.849L574.329 188.066L579.189 193.566H577.869ZM571.589 193.566V182.966H572.709V193.566H571.589ZM509.057 213.566V203.886H503.637V213.566H502.517V202.966H510.157V213.566H509.057ZM520.079 213.566V204.846L514.199 213.566H513.259V202.966H514.379V211.686L520.239 202.966H521.179V213.566H520.079ZM523.315 203.886V202.966H531.615V203.886H528.015V213.566H526.895V203.886H523.315ZM534.473 206.426H533.373V205.906C533.373 204.086 534.913 202.826 537.113 202.826C539.293 202.826 540.833 204.086 540.833 205.906V213.566H539.733V212.326C539.033 213.086 537.913 213.706 536.473 213.706C534.473 213.706 533.193 212.646 533.193 211.026V210.406C533.193 208.746 534.733 207.786 536.953 207.666L539.733 207.526V205.846C539.733 204.606 538.633 203.746 537.113 203.746C535.573 203.746 534.473 204.606 534.473 205.846V206.426ZM539.733 210.766V208.446L536.973 208.586C535.233 208.686 534.313 209.346 534.313 210.346V211.026C534.313 212.066 535.273 212.786 536.793 212.786C538.433 212.786 539.733 211.926 539.733 210.766ZM550.424 213.566V208.566H545.004V213.566H543.884V202.966H545.004V207.646H550.424V202.966H551.524V213.566H550.424ZM561.446 213.566V204.846L555.566 213.566H554.626V202.966H555.746V211.686L561.606 202.966H562.546V213.566H561.446ZM572.462 202.966V213.566H571.362V209.146H569.042L566.142 213.566H564.982L567.902 209.066C566.222 208.766 565.202 207.786 565.202 206.286V205.826C565.202 204.046 566.662 202.966 568.962 202.966H572.462ZM566.302 206.346C566.302 207.546 567.322 208.226 568.962 208.226H571.362V203.886H568.962C567.322 203.886 566.302 204.566 566.302 205.766V206.346Z" fill="white"/>
<path d="M466.894 186.013V184.504H480.106V186.013H466.894Z" fill="white"/>
<path d="M474.503 208.464V215.656H472.994V208.464H465.802V206.955H472.994V199.763H474.503V206.955H481.695V208.464H474.503Z" fill="white"/>
<defs>
<linearGradient id="paint0_linear_411_656" x1="226.297" y1="269.399" x2="226.183" y2="200.118" gradientUnits="userSpaceOnUse">
<stop stop-color="#D9D9D9" stop-opacity="0.25"/>
<stop offset="1" stop-color="#ECD145"/>
</linearGradient>
</defs>
</svg>
