<svg width="618" height="330" viewBox="0 0 618 330" fill="none" xmlns="http://www.w3.org/2000/svg">
<path d="M300.999 284.604C404.666 284.937 616.709 228.519 510.5 71.6037C433 -42.8965 311 0.270363 262 71.6037" stroke="#383838" stroke-width="0.5"/>
<path d="M219.481 202.78H233.113L239.93 272.813H210.96L219.481 202.78Z" fill="url(#paint0_linear_411_656)"/>
<path d="M263.824 272.581V279.214H188.728V272.581H263.824Z" fill="#6C6C6D"/>
<rect x="313.32" y="278.384" width="8.29171" height="174.087" transform="rotate(90 313.32 278.384)" fill="#AEABAB"/>
<path d="M269.271 228.213C261.595 231.531 247.21 240.819 251.072 251.435" stroke="black" stroke-width="0.5"/>
<path d="M272.984 235.954C267.289 237.551 256.717 243.399 259.985 254.015" stroke="black" stroke-width="0.5"/>
<path d="M218.387 65.2944H233.986V179.559L226.186 193.566L218.387 179.559V65.2944Z" fill="#757171"/>
<path d="M195.707 161.793L218.388 190.986V202.781L184.219 161.793V65.6631H195.707V161.793Z" fill="#47A4B5"/>
<path d="M170.846 178.447L208.729 220.981V238.166L158.961 178.448V66.4007L170.846 66.4004V178.447Z" fill="#47A4B5"/>
<path d="M288.39 177.229L251.073 219.58V236.692L300.098 177.229V65.6634L288.39 65.6631V177.229Z" fill="#47A4B5"/>
<path d="M256.665 161.793L233.984 190.986V202.781L268.152 161.793V65.6631H256.665V161.793Z" fill="#47A4B5"/>
<path d="M144.014 65.6631H129.25V226.559L162.305 252.153H178.176L144.014 226.559V65.6631Z" fill="#47A4B5"/>
<path d="M317.984 65.6631H332.777V226.576L299.656 252.173H283.753L317.984 226.576V65.6631Z" fill="#47A4B5"/>
<ellipse cx="225.443" cy="269.865" rx="21.1698" ry="5.89753" fill="#E2832B"/>
<ellipse cx="174.931" cy="76.7209" rx="1.857" ry="1.84298" fill="#181818"/>
<ellipse cx="275.212" cy="67.8747" rx="1.857" ry="1.84298" fill="#181818"/>
<ellipse cx="1.85171" cy="1.8483" rx="1.85171" ry="1.8483" transform="matrix(0.790702 -0.612202 0.617998 0.78618 178.277 155.288)" fill="#181818"/>
<ellipse cx="1.85171" cy="1.8483" rx="1.85171" ry="1.8483" transform="matrix(0.790702 -0.612202 0.617998 0.78618 278.555 146.442)" fill="#181818"/>
<ellipse cx="175.677" cy="116.529" rx="1.857" ry="1.84298" fill="#181818"/>
<ellipse cx="275.955" cy="107.683" rx="1.857" ry="1.84298" fill="#181818"/>
<ellipse cx="1.85171" cy="1.8483" rx="1.85171" ry="1.8483" transform="matrix(0.790702 -0.612202 0.617998 0.78618 186.449 188.028)" fill="#181818"/>
<ellipse cx="1.85166" cy="1.84834" rx="1.85166" ry="1.84834" transform="matrix(0.788662 0.614828 -0.620618 0.784113 266.277 178.129)" fill="#181818"/>
<ellipse cx="1.85695" cy="1.84303" rx="1.85695" ry="1.84303" transform="matrix(0.998357 0.0573083 -0.0581807 0.998306 223.176 223.05)" fill="#181818"/>
<ellipse cx="180.873" cy="114.318" rx="1.857" ry="1.84298" fill="#181818"/>
<ellipse cx="281.154" cy="105.471" rx="1.857" ry="1.84298" fill="#181818"/>
<ellipse cx="1.85171" cy="1.8483" rx="1.85171" ry="1.8483" transform="matrix(0.790702 -0.612202 0.617998 0.78618 189.18 183.11)" fill="#181818"/>
<ellipse cx="1.85166" cy="1.84834" rx="1.85166" ry="1.84834" transform="matrix(0.788662 0.614828 -0.620618 0.784113 271.738 179.579)" fill="#181818"/>
<ellipse cx="1.85695" cy="1.84303" rx="1.85695" ry="1.84303" transform="matrix(0.998357 0.0573083 -0.0581807 0.998306 232.715 222.316)" fill="#181818"/>
<ellipse cx="1.84751" cy="1.8525" rx="1.84751" ry="1.8525" transform="matrix(0.57049 0.821305 -0.825325 0.564658 180.637 86.6729)" fill="#181818"/>
<ellipse cx="1.84751" cy="1.8525" rx="1.84751" ry="1.8525" transform="matrix(0.57049 0.821305 -0.825325 0.564658 280.914 77.8267)" fill="#181818"/>
<ellipse cx="1.85574" cy="1.84425" rx="1.85574" ry="1.84425" transform="matrix(0.954576 0.297969 -0.302107 0.953274 172.703 162.604)" fill="#181818"/>
<ellipse cx="1.85574" cy="1.84425" rx="1.85574" ry="1.84425" transform="matrix(0.954576 0.297969 -0.302107 0.953274 272.98 153.757)" fill="#181818"/>
<ellipse cx="1.84751" cy="1.8525" rx="1.84751" ry="1.8525" transform="matrix(0.57049 0.821305 -0.825325 0.564658 181.375 126.481)" fill="#181818"/>
<ellipse cx="1.84751" cy="1.8525" rx="1.84751" ry="1.8525" transform="matrix(0.57049 0.821305 -0.825325 0.564658 281.656 117.635)" fill="#181818"/>
<ellipse cx="1.85574" cy="1.84425" rx="1.85574" ry="1.84425" transform="matrix(0.954576 0.297969 -0.302107 0.953274 199.719 192.714)" fill="#181818"/>
<ellipse cx="1.84303" cy="1.85695" rx="1.84303" ry="1.85695" transform="matrix(-0.0627213 0.998031 -0.99809 -0.0617814 264.875 192.038)" fill="#181818"/>
<ellipse cx="1.84677" cy="1.85323" rx="1.84677" ry="1.85323" transform="matrix(0.521962 0.852969 -0.85646 0.516214 230.031 235.258)" fill="#181818"/>
<ellipse cx="1.85649" cy="1.84349" rx="1.85649" ry="1.84349" transform="matrix(0.981948 -0.18915 0.191933 0.981408 171.59 100.645)" fill="#181818"/>
<ellipse cx="1.85649" cy="1.84349" rx="1.85649" ry="1.84349" transform="matrix(0.981948 -0.18915 0.191933 0.981408 271.867 91.7983)" fill="#181818"/>
<ellipse cx="1.84904" cy="1.85096" rx="1.84904" ry="1.85096" transform="matrix(0.659632 -0.751589 0.75652 0.653971 175.988 178.317)" fill="#181818"/>
<ellipse cx="1.84904" cy="1.85096" rx="1.84904" ry="1.85096" transform="matrix(0.659632 -0.751589 0.75652 0.653971 276.27 169.471)" fill="#181818"/>
<ellipse cx="1.85649" cy="1.84349" rx="1.85649" ry="1.84349" transform="matrix(0.981948 -0.18915 0.191933 0.981408 172.332 140.453)" fill="#181818"/>
<ellipse cx="1.85649" cy="1.84349" rx="1.85649" ry="1.84349" transform="matrix(0.981948 -0.18915 0.191933 0.981408 272.613 131.606)" fill="#181818"/>
<ellipse cx="1.84904" cy="1.85096" rx="1.84904" ry="1.85096" transform="matrix(0.659632 -0.751589 0.75652 0.653971 201.246 209.251)" fill="#181818"/>
<ellipse cx="1.85409" cy="1.84591" rx="1.85409" ry="1.84591" transform="matrix(0.891085 0.453836 -0.459313 0.888274 249.066 197.481)" fill="#181818"/>
<ellipse cx="1.85021" cy="1.8498" rx="1.85021" ry="1.8498" transform="matrix(-0.71986 0.694119 -0.699553 -0.714581 245.41 211.61)" fill="#181818"/>
<ellipse cx="1.85318" cy="1.84682" rx="1.85318" ry="1.84682" transform="matrix(-0.85438 -0.519649 0.525407 -0.850851 218.578 220.013)" fill="#181818"/>
<ellipse cx="1.85675" cy="1.84323" rx="1.85675" ry="1.84323" transform="matrix(0.991177 -0.132543 0.134531 0.990909 220.191 248.688)" fill="#181818"/>
<ellipse cx="180.873" cy="82.6184" rx="1.857" ry="1.84298" fill="#181818"/>
<ellipse cx="281.154" cy="73.7717" rx="1.857" ry="1.84298" fill="#181818"/>
<ellipse cx="1.85171" cy="1.8483" rx="1.85171" ry="1.8483" transform="matrix(0.790702 -0.612202 0.617998 0.78618 173.82 158.236)" fill="#181818"/>
<ellipse cx="1.85171" cy="1.8483" rx="1.85171" ry="1.8483" transform="matrix(0.790702 -0.612202 0.617998 0.78618 274.098 149.39)" fill="#181818"/>
<ellipse cx="181.619" cy="122.426" rx="1.857" ry="1.84298" fill="#181818"/>
<ellipse cx="281.896" cy="113.58" rx="1.857" ry="1.84298" fill="#181818"/>
<ellipse cx="1.85171" cy="1.8483" rx="1.85171" ry="1.8483" transform="matrix(0.790702 -0.612202 0.617998 0.78618 194.793 189.051)" fill="#181818"/>
<ellipse cx="1.85166" cy="1.84834" rx="1.85166" ry="1.84834" transform="matrix(0.788662 0.614828 -0.620618 0.784113 267.273 186.412)" fill="#181818"/>
<ellipse cx="1.85695" cy="1.84303" rx="1.85695" ry="1.84303" transform="matrix(0.998357 0.0573083 -0.0581807 0.998306 228.766 229.28)" fill="#181818"/>
<ellipse cx="1.84751" cy="1.8525" rx="1.84751" ry="1.8525" transform="matrix(0.57049 0.821305 -0.825325 0.564658 179.113 94.8755)" fill="#181818"/>
<ellipse cx="1.84751" cy="1.8525" rx="1.84751" ry="1.8525" transform="matrix(0.57049 0.821305 -0.825325 0.564658 279.395 86.0293)" fill="#181818"/>
<ellipse cx="1.85574" cy="1.84425" rx="1.85574" ry="1.84425" transform="matrix(0.954576 0.297969 -0.302107 0.953274 180.875 169.976)" fill="#181818"/>
<ellipse cx="1.85574" cy="1.84425" rx="1.85574" ry="1.84425" transform="matrix(0.954576 0.297969 -0.302107 0.953274 278.621 160.33)" fill="#181818"/>
<ellipse cx="1.84751" cy="1.8525" rx="1.84751" ry="1.8525" transform="matrix(0.57049 0.821305 -0.825325 0.564658 179.855 134.684)" fill="#181818"/>
<ellipse cx="1.84751" cy="1.8525" rx="1.84751" ry="1.8525" transform="matrix(0.57049 0.821305 -0.825325 0.564658 280.133 125.838)" fill="#181818"/>
<ellipse cx="1.85574" cy="1.84425" rx="1.85574" ry="1.84425" transform="matrix(0.954576 0.297969 -0.302107 0.953274 203.602 200.109)" fill="#181818"/>
<ellipse cx="1.84303" cy="1.85695" rx="1.84303" ry="1.85695" transform="matrix(-0.0627213 0.998031 -0.99809 -0.0617814 258.574 197.556)" fill="#181818"/>
<ellipse cx="1.855" cy="1.84499" rx="1.855" ry="1.84499" transform="matrix(-0.926678 -0.375855 0.380769 -0.92467 240.395 221.225)" fill="#181818"/>
<ellipse cx="1.84325" cy="1.85674" rx="1.84325" ry="1.85674" transform="matrix(0.138553 -0.990355 0.990639 0.136508 214.672 225.967)" fill="#181818"/>
<ellipse cx="1.84677" cy="1.85323" rx="1.84677" ry="1.85323" transform="matrix(0.521962 0.852969 -0.85646 0.516214 228.035 243.361)" fill="#181818"/>
<ellipse cx="1.85649" cy="1.84349" rx="1.85649" ry="1.84349" transform="matrix(0.981948 -0.18915 0.191933 0.981408 178.555 105.312)" fill="#181818"/>
<ellipse cx="1.85649" cy="1.84349" rx="1.85649" ry="1.84349" transform="matrix(0.981948 -0.18915 0.191933 0.981408 278.832 96.4648)" fill="#181818"/>
<ellipse cx="1.84904" cy="1.85096" rx="1.84904" ry="1.85096" transform="matrix(0.659632 -0.751589 0.75652 0.653971 184.371 177.744)" fill="#181818"/>
<ellipse cx="1.85409" cy="1.84591" rx="1.85409" ry="1.84591" transform="matrix(0.891085 0.453836 -0.459313 0.888274 275.832 173.662)" fill="#181818"/>
<ellipse cx="1.85675" cy="1.84323" rx="1.85675" ry="1.84323" transform="matrix(0.991177 -0.132543 0.134531 0.990909 231.758 216.173)" fill="#181818"/>
<ellipse cx="1.85409" cy="1.84591" rx="1.85409" ry="1.84591" transform="matrix(0.891085 0.453836 -0.459313 0.888274 269.105 172.924)" fill="#181818"/>
<ellipse cx="1.85675" cy="1.84323" rx="1.85675" ry="1.84323" transform="matrix(0.991177 -0.132543 0.134531 0.990909 222.504 217.172)" fill="#181818"/>
<ellipse cx="1.85649" cy="1.84349" rx="1.85649" ry="1.84349" transform="matrix(0.981948 -0.18915 0.191933 0.981408 179.301 145.12)" fill="#181818"/>
<ellipse cx="1.85649" cy="1.84349" rx="1.85649" ry="1.84349" transform="matrix(0.981948 -0.18915 0.191933 0.981408 279.578 136.273)" fill="#181818"/>
<ellipse cx="1.84904" cy="1.85096" rx="1.84904" ry="1.85096" transform="matrix(0.659632 -0.751589 0.75652 0.653971 209.637 208.677)" fill="#181818"/>
<ellipse cx="1.85409" cy="1.84591" rx="1.85409" ry="1.84591" transform="matrix(0.891085 0.453836 -0.459313 0.888274 251.641 205.422)" fill="#181818"/>
<ellipse cx="1.85021" cy="1.8498" rx="1.85021" ry="1.8498" transform="matrix(-0.71986 0.694119 -0.699553 -0.714581 237.008 211.49)" fill="#181818"/>
<ellipse cx="1.85318" cy="1.84682" rx="1.85318" ry="1.84682" transform="matrix(-0.85438 -0.519649 0.525407 -0.850851 218.469 214.116)" fill="#181818"/>
<ellipse cx="1.85675" cy="1.84323" rx="1.85675" ry="1.84323" transform="matrix(0.991177 -0.132543 0.134531 0.990909 226.879 253.746)" fill="#181818"/>
<ellipse cx="174.931" cy="84.8298" rx="1.857" ry="1.84298" fill="#181818"/>
<ellipse cx="275.212" cy="75.9836" rx="1.857" ry="1.84298" fill="#181818"/>
<ellipse cx="1.85171" cy="1.8483" rx="1.85171" ry="1.8483" transform="matrix(0.790702 -0.612202 0.617998 0.78618 179.016 165.608)" fill="#181818"/>
<ellipse cx="1.85171" cy="1.8483" rx="1.85171" ry="1.8483" transform="matrix(0.790702 -0.612202 0.617998 0.78618 279.297 156.762)" fill="#181818"/>
<ellipse cx="175.677" cy="124.638" rx="1.857" ry="1.84298" fill="#181818"/>
<ellipse cx="275.955" cy="115.792" rx="1.857" ry="1.84298" fill="#181818"/>
<ellipse cx="1.85171" cy="1.8483" rx="1.85171" ry="1.8483" transform="matrix(0.790702 -0.612202 0.617998 0.78618 191.473 194.422)" fill="#181818"/>
<ellipse cx="1.85166" cy="1.84834" rx="1.85166" ry="1.84834" transform="matrix(0.788662 0.614828 -0.620618 0.784113 261.227 184.505)" fill="#181818"/>
<ellipse cx="1.85695" cy="1.84303" rx="1.85695" ry="1.84303" transform="matrix(0.998357 0.0573083 -0.0581807 0.998306 222.703 231.145)" fill="#181818"/>
<ellipse cx="1.84751" cy="1.8525" rx="1.84751" ry="1.8525" transform="matrix(0.57049 0.821305 -0.825325 0.564658 173.906 91.2754)" fill="#181818"/>
<ellipse cx="1.84751" cy="1.8525" rx="1.84751" ry="1.8525" transform="matrix(0.57049 0.821305 -0.825325 0.564658 274.18 82.4287)" fill="#181818"/>
<ellipse cx="1.85574" cy="1.84425" rx="1.85574" ry="1.84425" transform="matrix(0.954576 0.297969 -0.302107 0.953274 173.445 169.976)" fill="#181818"/>
<ellipse cx="1.85574" cy="1.84425" rx="1.85574" ry="1.84425" transform="matrix(0.954576 0.297969 -0.302107 0.953274 273.727 161.129)" fill="#181818"/>
<ellipse cx="1.85574" cy="1.84425" rx="1.85574" ry="1.84425" transform="matrix(0.954576 0.297969 -0.302107 0.953274 268.523 166.29)" fill="#181818"/>
<ellipse cx="1.84751" cy="1.8525" rx="1.84751" ry="1.8525" transform="matrix(0.57049 0.821305 -0.825325 0.564658 174.648 131.084)" fill="#181818"/>
<ellipse cx="1.84751" cy="1.8525" rx="1.84751" ry="1.8525" transform="matrix(0.57049 0.821305 -0.825325 0.564658 274.93 122.238)" fill="#181818"/>
<ellipse cx="1.85574" cy="1.84425" rx="1.85574" ry="1.84425" transform="matrix(0.954576 0.297969 -0.302107 0.953274 197.266 200.45)" fill="#181818"/>
<ellipse cx="1.84303" cy="1.85695" rx="1.84303" ry="1.85695" transform="matrix(-0.0627213 0.998031 -0.99809 -0.0617814 256.719 191.533)" fill="#181818"/>
<ellipse cx="1.84677" cy="1.85323" rx="1.84677" ry="1.85323" transform="matrix(0.521962 0.852969 -0.85646 0.516214 223.047 239.468)" fill="#181818"/>
<ellipse cx="1.85649" cy="1.84349" rx="1.85649" ry="1.84349" transform="matrix(0.981948 -0.18915 0.191933 0.981408 173.148 108.606)" fill="#181818"/>
<ellipse cx="1.85649" cy="1.84349" rx="1.85649" ry="1.84349" transform="matrix(0.981948 -0.18915 0.191933 0.981408 273.426 99.7603)" fill="#181818"/>
<ellipse cx="1.84904" cy="1.85096" rx="1.84904" ry="1.85096" transform="matrix(0.659632 -0.751589 0.75652 0.653971 182.152 183.644)" fill="#181818"/>
<ellipse cx="1.85649" cy="1.84349" rx="1.85649" ry="1.84349" transform="matrix(0.981948 -0.18915 0.191933 0.981408 173.891 148.415)" fill="#181818"/>
<ellipse cx="1.85649" cy="1.84349" rx="1.85649" ry="1.84349" transform="matrix(0.981948 -0.18915 0.191933 0.981408 274.168 139.569)" fill="#181818"/>
<ellipse cx="1.84904" cy="1.85096" rx="1.84904" ry="1.85096" transform="matrix(0.659632 -0.751589 0.75652 0.653971 207.41 214.577)" fill="#181818"/>
<ellipse cx="1.85409" cy="1.84591" rx="1.85409" ry="1.84591" transform="matrix(0.891085 0.453836 -0.459313 0.888274 245.336 204.697)" fill="#181818"/>
<ellipse cx="1.85021" cy="1.8498" rx="1.85021" ry="1.8498" transform="matrix(-0.71986 0.694119 -0.699553 -0.714581 242.207 205.793)" fill="#181818"/>
<ellipse cx="1.85318" cy="1.84682" rx="1.85318" ry="1.84682" transform="matrix(-0.85438 -0.519649 0.525407 -0.850851 224.699 215.312)" fill="#181818"/>
<ellipse cx="1.85675" cy="1.84323" rx="1.85675" ry="1.84323" transform="matrix(0.991177 -0.132543 0.134531 0.990909 221.285 256.726)" fill="#181818"/>
<path d="M181.246 228.213C189.417 229.319 205.461 235.733 204.273 252.541" stroke="black" stroke-width="0.5"/>
<path d="M175.305 237.797C183.475 238.903 199.52 245.317 198.331 262.125" stroke="black" stroke-width="0.5"/>
<path d="M169.331 13.4035V14.0635C169.331 16.2435 171.231 17.7435 173.931 17.7435C176.611 17.7435 178.511 16.2435 178.511 14.0635V7.14352C178.511 4.96352 176.611 3.46352 173.931 3.46352C171.231 3.46352 169.331 4.96352 169.331 7.14352V7.84351H170.511V7.08352C170.511 5.52351 171.931 4.46352 173.931 4.46352C175.931 4.46352 177.351 5.52351 177.351 7.08352V10.1035H173.051V11.1035H177.351V14.1235C177.351 15.6835 175.931 16.7435 173.931 16.7435C171.931 16.7435 170.511 15.6835 170.511 14.1235V13.4035H169.331ZM179.655 16.7235V17.6435H179.955C182.215 17.6435 182.995 16.4235 182.995 8.32352V7.92352H187.475V17.6035H188.575V7.00352H181.955V8.32352C181.955 15.8035 181.295 16.7235 179.955 16.7235H179.655ZM191.497 14.6635C191.497 16.4835 193.097 17.7435 195.397 17.7435C197.677 17.7435 199.297 16.4835 199.297 14.6635V14.3035H198.177V14.7235C198.177 15.9635 197.037 16.8235 195.397 16.8235C193.757 16.8235 192.597 15.9635 192.597 14.7235V12.7235H199.297V9.94352C199.297 8.12351 197.677 6.86352 195.397 6.86352C193.097 6.86352 191.497 8.12351 191.497 9.94352V14.6635ZM195.397 7.78352C197.037 7.78352 198.177 8.64352 198.177 9.88352V11.8035H192.597V9.88352C192.597 8.64352 193.757 7.78352 195.397 7.78352ZM208.328 17.6035H209.648L204.788 12.1035L209.308 7.00352H207.988L203.508 12.1035L208.328 17.6035ZM202.048 17.6035H203.168V7.00352H202.048V17.6035ZM210.58 7.92352H214.16V17.6035H215.28V7.92352H218.88V7.00352H210.58V7.92352ZM221.013 21.6035H222.133V16.4235C222.773 17.1635 223.813 17.7435 225.213 17.7435C227.253 17.7435 228.653 16.5635 228.653 14.8635V9.74352C228.653 8.04352 227.253 6.86352 225.213 6.86352C223.813 6.86352 222.773 7.46352 222.133 8.18352V7.00352H221.013V21.6035ZM224.893 16.8235C223.293 16.8235 222.133 15.9835 222.133 14.8035V9.72352C222.193 8.58351 223.333 7.78352 224.893 7.78352C226.453 7.78352 227.553 8.62352 227.553 9.74352V14.8635C227.553 15.9835 226.453 16.8235 224.893 16.8235ZM239.18 14.6635V9.94352C239.18 8.12351 237.56 6.86352 235.28 6.86352C232.98 6.86352 231.38 8.12351 231.38 9.94352V14.6635C231.38 16.4835 232.98 17.7435 235.28 17.7435C237.56 17.7435 239.18 16.4835 239.18 14.6635ZM238.06 14.7235C238.06 15.9635 236.9 16.8235 235.28 16.8235C233.64 16.8235 232.48 15.9635 232.48 14.7235V9.88352C232.48 8.64352 233.64 7.78352 235.28 7.78352C236.9 7.78352 238.06 8.64352 238.06 9.88352V14.7235ZM240.38 20.3435H241.5V17.6035H249.56V20.3435H250.68V16.6835H249.22V7.00352H242.66V8.32352C242.66 15.1835 242.4 15.9835 241.32 16.6835H240.38V20.3435ZM243.72 8.32352V7.92352H248.12V16.6835H242.7C243.52 15.7035 243.72 13.7235 243.72 8.32352Z" fill="black"/>
<path d="M2.92 41.4927V28.4727H9.74V41.4927H10.92V27.4927H1.74V41.4927H2.92ZM12.9363 40.6127V41.5327H13.2363C15.4963 41.5327 16.2763 40.3127 16.2763 32.2127V31.8127H20.7563V41.4927H21.8563V30.8927H15.2363V32.2127C15.2363 39.6927 14.5763 40.6127 13.2363 40.6127H12.9363ZM25.918 34.3527V33.7727C25.918 32.5327 27.018 31.6727 28.558 31.6727C30.078 31.6727 31.178 32.5327 31.178 33.7727V35.4527L28.398 35.5927C26.178 35.7127 24.638 36.6727 24.638 38.3327V38.9527C24.638 40.5727 25.918 41.6327 27.918 41.6327C29.358 41.6327 30.478 41.0127 31.178 40.2527V41.4927H32.278V33.8327C32.278 32.0127 30.738 30.7527 28.558 30.7527C26.358 30.7527 24.818 32.0127 24.818 33.8327V34.3527H25.918ZM31.178 38.6927C31.178 39.8527 29.878 40.7127 28.238 40.7127C26.718 40.7127 25.758 39.9927 25.758 38.9527V38.2727C25.758 37.2727 26.678 36.6127 28.418 36.5127L31.178 36.3727V38.6927ZM38.7491 30.7527C36.5091 30.7527 34.8691 31.9727 34.8691 33.7327V34.1927H35.9891V33.7327C35.9891 32.4927 37.1691 31.6727 38.7291 31.6727C40.1891 31.6727 41.1891 32.3927 41.1891 33.4527V33.8927C41.1891 34.9327 40.1491 35.6327 38.7091 35.6327H37.6091V36.5527H39.1491C40.5691 36.5527 41.6091 37.2927 41.6091 38.3727V38.8527C41.6091 39.9527 40.3491 40.7127 38.7491 40.7127C37.0691 40.7127 35.9891 39.8727 35.9891 38.6527V38.1927H34.8691V38.6527C34.8691 40.4127 36.3891 41.6327 38.7691 41.6327C41.0091 41.6327 42.7091 40.5127 42.7091 38.9327V38.4327C42.7091 37.2727 41.9091 36.4127 40.6891 36.0327C41.6691 35.6127 42.2891 34.8527 42.2891 33.8527V33.3727C42.2891 31.8327 40.8691 30.7527 38.7491 30.7527ZM45.2119 41.4927H46.2519V33.0327L49.9919 39.9527H50.5519L54.2919 33.0327V41.4927H55.3319V30.8927H54.3719L50.2719 38.4327L46.1719 30.8927H45.2119V41.4927ZM66.035 38.5527V33.8327C66.035 32.0127 64.415 30.7527 62.135 30.7527C59.835 30.7527 58.235 32.0127 58.235 33.8327V38.5527C58.235 40.3727 59.835 41.6327 62.135 41.6327C64.415 41.6327 66.035 40.3727 66.035 38.5527ZM64.915 38.6127C64.915 39.8527 63.755 40.7127 62.135 40.7127C60.495 40.7127 59.335 39.8527 59.335 38.6127V33.7727C59.335 32.5327 60.495 31.6727 62.135 31.6727C63.755 31.6727 64.915 32.5327 64.915 33.7727V38.6127ZM76.5428 38.5527V33.8327C76.5428 32.0127 74.9228 30.7527 72.6428 30.7527C70.3428 30.7527 68.7428 32.0127 68.7428 33.8327V38.5527C68.7428 40.3727 70.3428 41.6327 72.6428 41.6327C74.9228 41.6327 76.5428 40.3727 76.5428 38.5527ZM75.4228 38.6127C75.4228 39.8527 74.2628 40.7127 72.6428 40.7127C71.0028 40.7127 69.8428 39.8527 69.8428 38.6127V33.7727C69.8428 32.5327 71.0028 31.6727 72.6428 31.6727C74.2628 31.6727 75.4228 32.5327 75.4228 33.7727V38.6127ZM83.1706 41.6327C85.4506 41.6327 87.0706 40.3727 87.0706 38.5527V33.8327C87.0706 32.1127 85.6306 30.9527 83.5706 30.9527C82.1106 30.9527 80.9906 31.4527 80.3906 32.2727V31.2927C80.3906 29.7727 81.2506 28.8127 82.7506 28.6727L86.6706 28.2527L86.5706 27.2927L82.5306 27.6927C80.4306 27.9127 79.2706 29.2727 79.2706 31.2927V38.5527C79.2706 40.3727 80.8906 41.6327 83.1706 41.6327ZM83.1706 40.7127C81.5306 40.7127 80.3906 39.8527 80.3906 38.6127V33.8127C80.3906 32.6527 81.6106 31.8727 83.2306 31.8727C84.8506 31.8727 85.9706 32.7127 85.9706 33.8327V38.6127C85.9706 39.8527 84.8106 40.7127 83.1706 40.7127ZM89.9775 45.4927H91.0975V40.3127C91.7375 41.0527 92.7775 41.6327 94.1775 41.6327C96.2175 41.6327 97.6175 40.4527 97.6175 38.7527V33.6327C97.6175 31.9327 96.2175 30.7527 94.1775 30.7527C92.7775 30.7527 91.7375 31.3527 91.0975 32.0727V30.8927H89.9775V45.4927ZM93.8575 40.7127C92.2575 40.7127 91.0975 39.8727 91.0975 38.6927V33.6127C91.1575 32.4727 92.2975 31.6727 93.8575 31.6727C95.4175 31.6727 96.5175 32.5127 96.5175 33.6327V38.7527C96.5175 39.8727 95.4175 40.7127 93.8575 40.7127ZM101.309 34.3527V33.7727C101.309 32.5327 102.409 31.6727 103.949 31.6727C105.469 31.6727 106.569 32.5327 106.569 33.7727V35.4527L103.789 35.5927C101.569 35.7127 100.029 36.6727 100.029 38.3327V38.9527C100.029 40.5727 101.309 41.6327 103.309 41.6327C104.749 41.6327 105.869 41.0127 106.569 40.2527V41.4927H107.669V33.8327C107.669 32.0127 106.129 30.7527 103.949 30.7527C101.749 30.7527 100.209 32.0127 100.209 33.8327V34.3527H101.309ZM106.569 38.6927C106.569 39.8527 105.269 40.7127 103.629 40.7127C102.109 40.7127 101.149 39.9927 101.149 38.9527V38.2727C101.149 37.2727 102.069 36.6127 103.809 36.5127L106.569 36.3727V38.6927ZM114.14 30.7527C111.9 30.7527 110.26 31.9727 110.26 33.7327V34.1927H111.38V33.7327C111.38 32.4927 112.56 31.6727 114.12 31.6727C115.58 31.6727 116.58 32.3927 116.58 33.4527V33.8927C116.58 34.9327 115.54 35.6327 114.1 35.6327H113V36.5527H114.54C115.96 36.5527 117 37.2927 117 38.3727V38.8527C117 39.9527 115.74 40.7127 114.14 40.7127C112.46 40.7127 111.38 39.8727 111.38 38.6527V38.1927H110.26V38.6527C110.26 40.4127 111.78 41.6327 114.16 41.6327C116.4 41.6327 118.1 40.5127 118.1 38.9327V38.4327C118.1 37.2727 117.3 36.4127 116.08 36.0327C117.06 35.6127 117.68 34.8527 117.68 33.8527V33.3727C117.68 31.8327 116.26 30.7527 114.14 30.7527ZM128.109 30.8927H127.029L123.509 40.0927L120.209 30.8927H119.129L122.949 41.5327L121.449 45.4927H122.529L128.109 30.8927ZM141.217 38.5527V33.8327C141.217 32.0127 139.717 30.7527 137.597 30.7527C135.477 30.7527 133.977 32.0127 133.977 33.8327V35.5727H131.117V30.8927H129.997V41.4927H131.117V36.4927H133.977V38.5527C133.977 40.3727 135.477 41.6327 137.597 41.6327C139.717 41.6327 141.217 40.3727 141.217 38.5527ZM140.097 38.6127C140.097 39.8527 139.037 40.7127 137.597 40.7127C136.137 40.7127 135.077 39.8527 135.077 38.6127V33.7727C135.077 32.5327 136.137 31.6727 137.597 31.6727C139.037 31.6727 140.097 32.5327 140.097 33.7727V38.6127ZM158.238 44.2327H159.358V40.5727H157.498V30.8927H156.398V40.5727H151.378V30.8927H150.258V40.5727H145.238V30.8927H144.118V41.4927H158.238V44.2327ZM167.911 41.4927H169.011V30.8927H168.071L162.211 39.6127V30.8927H161.091V41.4927H162.031L167.911 32.7727V41.4927ZM178.907 41.4927H180.007V30.8927H179.067L173.207 39.6127V30.8927H172.087V41.4927H173.027L178.907 32.7727V41.4927ZM177.847 27.2927V27.7127C177.847 28.3527 177.107 28.8527 176.067 28.8527C175.007 28.8527 174.267 28.3527 174.267 27.7127V27.2927H173.367V27.6127C173.367 28.7727 174.467 29.5927 176.067 29.5927C177.647 29.5927 178.747 28.7727 178.747 27.6127V27.2927H177.847ZM1.54 61.4927H2.66V51.8127H7.54V50.8927H1.54V61.4927ZM10.332 54.3527V53.7727C10.332 52.5327 11.432 51.6727 12.972 51.6727C14.492 51.6727 15.592 52.5327 15.592 53.7727V55.4527L12.812 55.5927C10.592 55.7127 9.05203 56.6727 9.05203 58.3327V58.9527C9.05203 60.5727 10.332 61.6327 12.332 61.6327C13.772 61.6327 14.892 61.0127 15.592 60.2527V61.4927H16.692V53.8327C16.692 52.0127 15.152 50.7527 12.972 50.7527C10.772 50.7527 9.23203 52.0127 9.23203 53.8327V54.3527H10.332ZM15.592 58.6927C15.592 59.8527 14.292 60.7127 12.652 60.7127C11.132 60.7127 10.172 59.9927 10.172 58.9527V58.2727C10.172 57.2727 11.092 56.6127 12.832 56.5127L15.592 56.3727V58.6927ZM23.1631 50.7527C20.9231 50.7527 19.2831 51.9727 19.2831 53.7327V54.1927H20.4031V53.7327C20.4031 52.4927 21.5831 51.6727 23.1431 51.6727C24.6031 51.6727 25.6031 52.3927 25.6031 53.4527V53.8927C25.6031 54.9327 24.5631 55.6327 23.1231 55.6327H22.0231V56.5527H23.5631C24.9831 56.5527 26.0231 57.2927 26.0231 58.3727V58.8527C26.0231 59.9527 24.7631 60.7127 23.1631 60.7127C21.4831 60.7127 20.4031 59.8727 20.4031 58.6527V58.1927H19.2831V58.6527C19.2831 60.4127 20.8031 61.6327 23.1831 61.6327C25.4231 61.6327 27.1231 60.5127 27.1231 58.9327V58.4327C27.1231 57.2727 26.3231 56.4127 25.1031 56.0327C26.0831 55.6127 26.7031 54.8527 26.7031 53.8527V53.3727C26.7031 51.8327 25.2831 50.7527 23.1631 50.7527Z" fill="black"/>
<path d="M34.92 112.604V99.5835H41.74V112.604H42.92V98.6035H33.74V112.604H34.92ZM53.8163 109.664V104.944C53.8163 103.124 52.1963 101.864 49.9163 101.864C47.6163 101.864 46.0163 103.124 46.0163 104.944V109.664C46.0163 111.484 47.6163 112.744 49.9163 112.744C52.1963 112.744 53.8163 111.484 53.8163 109.664ZM52.6963 109.724C52.6963 110.964 51.5363 111.824 49.9163 111.824C48.2763 111.824 47.1163 110.964 47.1163 109.724V104.884C47.1163 103.644 48.2763 102.784 49.9163 102.784C51.5363 102.784 52.6963 103.644 52.6963 104.884V109.724ZM56.7041 116.604H57.8241V111.424C58.4641 112.164 59.5041 112.744 60.9041 112.744C62.9441 112.744 64.3441 111.564 64.3441 109.864V104.744C64.3441 103.044 62.9441 101.864 60.9041 101.864C59.5041 101.864 58.4641 102.464 57.8241 103.184V102.004H56.7041V116.604ZM60.5841 111.824C58.9841 111.824 57.8241 110.984 57.8241 109.804V104.724C57.8841 103.584 59.0241 102.784 60.5841 102.784C62.1441 102.784 63.2441 103.624 63.2441 104.744V109.864C63.2441 110.984 62.1441 111.824 60.5841 111.824ZM74.8709 109.664V104.944C74.8709 103.124 73.2509 101.864 70.9709 101.864C68.6709 101.864 67.0709 103.124 67.0709 104.944V109.664C67.0709 111.484 68.6709 112.744 70.9709 112.744C73.2509 112.744 74.8709 111.484 74.8709 109.664ZM73.7509 109.724C73.7509 110.964 72.5909 111.824 70.9709 111.824C69.3309 111.824 68.1709 110.964 68.1709 109.724V104.884C68.1709 103.644 69.3309 102.784 70.9709 102.784C72.5909 102.784 73.7509 103.644 73.7509 104.884V109.724ZM77.7588 112.604H91.1388V102.004H90.0388V111.684H85.0188V102.004H83.8988V111.684H78.8788V102.004H77.7588V112.604ZM101.863 109.664V104.944C101.863 103.124 100.243 101.864 97.9631 101.864C95.6631 101.864 94.0631 103.124 94.0631 104.944V109.664C94.0631 111.484 95.6631 112.744 97.9631 112.744C100.243 112.744 101.863 111.484 101.863 109.664ZM100.743 109.724C100.743 110.964 99.5831 111.824 97.9631 111.824C96.3231 111.824 95.1631 110.964 95.1631 109.724V104.884C95.1631 103.644 96.3231 102.784 97.9631 102.784C99.5831 102.784 100.743 103.644 100.743 104.884V109.724ZM111.031 112.604H112.351L107.491 107.104L112.011 102.004H110.691L106.211 107.104L111.031 112.604ZM104.751 112.604H105.871V102.004H104.751V112.604Z" fill="black"/>
<path d="M27.92 198.604V185.584H34.74V198.604H35.92V184.604H26.74V198.604H27.92ZM37.9363 197.724V198.644H38.2363C40.4963 198.644 41.2763 197.424 41.2763 189.324V188.924H45.7563V198.604H46.8563V188.004H40.2363V189.324C40.2363 196.804 39.5763 197.724 38.2363 197.724H37.9363ZM50.918 191.464V190.884C50.918 189.644 52.018 188.784 53.558 188.784C55.078 188.784 56.178 189.644 56.178 190.884V192.564L53.398 192.704C51.178 192.824 49.638 193.784 49.638 195.444V196.064C49.638 197.684 50.918 198.744 52.918 198.744C54.358 198.744 55.478 198.124 56.178 197.364V198.604H57.278V190.944C57.278 189.124 55.738 187.864 53.558 187.864C51.358 187.864 49.818 189.124 49.818 190.944V191.464H50.918ZM56.178 195.804C56.178 196.964 54.878 197.824 53.238 197.824C51.718 197.824 50.758 197.104 50.758 196.064V195.384C50.758 194.384 51.678 193.724 53.418 193.624L56.178 193.484V195.804ZM63.7491 187.864C61.5091 187.864 59.8691 189.084 59.8691 190.844V191.304H60.9891V190.844C60.9891 189.604 62.1691 188.784 63.7291 188.784C65.1891 188.784 66.1891 189.504 66.1891 190.564V191.004C66.1891 192.044 65.1491 192.744 63.7091 192.744H62.6091V193.664H64.1491C65.5691 193.664 66.6091 194.404 66.6091 195.484V195.964C66.6091 197.064 65.3491 197.824 63.7491 197.824C62.0691 197.824 60.9891 196.984 60.9891 195.764V195.304H59.8691V195.764C59.8691 197.524 61.3891 198.744 63.7691 198.744C66.0091 198.744 67.7091 197.624 67.7091 196.044V195.544C67.7091 194.384 66.9091 193.524 65.6891 193.144C66.6691 192.724 67.2891 191.964 67.2891 190.964V190.484C67.2891 188.944 65.8691 187.864 63.7491 187.864ZM70.2119 198.604H71.2519V190.144L74.9919 197.064H75.5519L79.2919 190.144V198.604H80.3319V188.004H79.3719L75.2719 195.544L71.1719 188.004H70.2119V198.604ZM84.375 191.464V190.884C84.375 189.644 85.475 188.784 87.015 188.784C88.535 188.784 89.635 189.644 89.635 190.884V192.564L86.855 192.704C84.635 192.824 83.095 193.784 83.095 195.444V196.064C83.095 197.684 84.375 198.744 86.375 198.744C87.815 198.744 88.935 198.124 89.635 197.364V198.604H90.735V190.944C90.735 189.124 89.195 187.864 87.015 187.864C84.815 187.864 83.275 189.124 83.275 190.944V191.464H84.375ZM89.635 195.804C89.635 196.964 88.335 197.824 86.695 197.824C85.175 197.824 84.215 197.104 84.215 196.064V195.384C84.215 194.384 85.135 193.724 86.875 193.624L89.635 193.484V195.804Z" fill="black"/>
<path d="M322.56 253.404V254.124C322.56 255.684 321.14 256.744 319.14 256.744C317.14 256.744 315.72 255.684 315.72 254.124V247.084C315.72 245.524 317.14 244.464 319.14 244.464C321.14 244.464 322.56 245.524 322.56 247.084V247.844H323.72V247.144C323.72 244.964 321.82 243.464 319.14 243.464C316.44 243.464 314.54 244.964 314.54 247.144V254.064C314.54 256.244 316.44 257.744 319.14 257.744C321.82 257.744 323.72 256.244 323.72 254.064V253.404H322.56ZM326.571 257.604H330.371C332.691 257.604 334.131 256.524 334.131 254.964V254.544C334.131 253.424 333.351 252.544 332.051 252.144C333.111 251.704 333.711 250.944 333.711 249.964V249.564C333.711 248.044 332.271 247.004 329.951 247.004H326.571V257.604ZM333.011 254.464V254.884C333.011 255.964 332.031 256.684 330.351 256.684H327.691V252.664H330.351C332.031 252.664 333.011 253.384 333.011 254.464ZM332.591 249.644V250.024C332.591 251.044 331.611 251.744 329.931 251.744H327.691V247.924H329.931C331.611 247.924 332.591 248.624 332.591 249.644ZM337.59 250.464V249.884C337.59 248.644 338.69 247.784 340.23 247.784C341.75 247.784 342.85 248.644 342.85 249.884V251.564L340.07 251.704C337.85 251.824 336.31 252.784 336.31 254.444V255.064C336.31 256.684 337.59 257.744 339.59 257.744C341.03 257.744 342.15 257.124 342.85 256.364V257.604H343.95V249.944C343.95 248.124 342.41 246.864 340.23 246.864C338.03 246.864 336.49 248.124 336.49 249.944V250.464H337.59ZM342.85 254.804C342.85 255.964 341.55 256.824 339.91 256.824C338.39 256.824 337.43 256.104 337.43 255.064V254.384C337.43 253.384 338.35 252.724 340.09 252.624L342.85 252.484V254.804ZM347.001 261.604H348.121V256.424C348.761 257.164 349.801 257.744 351.201 257.744C353.241 257.744 354.641 256.564 354.641 254.864V249.744C354.641 248.044 353.241 246.864 351.201 246.864C349.801 246.864 348.761 247.464 348.121 248.184V247.004H347.001V261.604ZM350.881 256.824C349.281 256.824 348.121 255.984 348.121 254.804V249.724C348.181 248.584 349.321 247.784 350.881 247.784C352.441 247.784 353.541 248.624 353.541 249.744V254.864C353.541 255.984 352.441 256.824 350.881 256.824ZM365.168 254.664V249.944C365.168 248.124 363.548 246.864 361.268 246.864C358.968 246.864 357.368 248.124 357.368 249.944V254.664C357.368 256.484 358.968 257.744 361.268 257.744C363.548 257.744 365.168 256.484 365.168 254.664ZM364.048 254.724C364.048 255.964 362.888 256.824 361.268 256.824C359.628 256.824 358.468 255.964 358.468 254.724V249.884C358.468 248.644 359.628 247.784 361.268 247.784C362.888 247.784 364.048 248.644 364.048 249.884V254.724ZM375.036 247.004H373.916V251.904C373.476 252.064 372.556 252.344 371.436 252.344C369.556 252.344 368.696 251.624 368.696 250.464V247.004H367.596V250.464C367.596 252.124 368.756 253.264 371.236 253.264C372.536 253.264 373.476 252.984 373.916 252.804V257.604H375.036V247.004ZM384.654 257.604H385.754V247.004H384.654V251.684H379.234V247.004H378.114V257.604H379.234V252.604H384.654V257.604ZM389.816 250.464V249.884C389.816 248.644 390.916 247.784 392.456 247.784C393.976 247.784 395.076 248.644 395.076 249.884V251.564L392.296 251.704C390.076 251.824 388.536 252.784 388.536 254.444V255.064C388.536 256.684 389.816 257.744 391.816 257.744C393.256 257.744 394.376 257.124 395.076 256.364V257.604H396.176V249.944C396.176 248.124 394.636 246.864 392.456 246.864C390.256 246.864 388.716 248.124 388.716 249.944V250.464H389.816ZM395.076 254.804C395.076 255.964 393.776 256.824 392.136 256.824C390.616 256.824 389.656 256.104 389.656 255.064V254.384C389.656 253.384 390.576 252.724 392.316 252.624L395.076 252.484V254.804ZM406.068 247.004H402.568C400.268 247.004 398.808 248.084 398.808 249.864V250.324C398.808 251.824 399.828 252.804 401.508 253.104L398.588 257.604H399.748L402.648 253.184H404.968V257.604H406.068V247.004ZM399.908 250.384V249.804C399.908 248.604 400.928 247.924 402.568 247.924H404.968V252.264H402.568C400.928 252.264 399.908 251.584 399.908 250.384ZM314.54 277.604H318.34C320.66 277.604 322.1 276.524 322.1 274.964V274.544C322.1 273.424 321.32 272.544 320.02 272.144C321.08 271.704 321.68 270.944 321.68 269.964V269.564C321.68 268.044 320.24 267.004 317.92 267.004H314.54V277.604ZM320.98 274.464V274.884C320.98 275.964 320 276.684 318.32 276.684H315.66V272.664H318.32C320 272.664 320.98 273.384 320.98 274.464ZM320.56 269.644V270.024C320.56 271.044 319.58 271.744 317.9 271.744H315.66V267.924H317.9C319.58 267.924 320.56 268.624 320.56 269.644ZM325.559 270.464V269.884C325.559 268.644 326.659 267.784 328.199 267.784C329.719 267.784 330.819 268.644 330.819 269.884V271.564L328.039 271.704C325.819 271.824 324.279 272.784 324.279 274.444V275.064C324.279 276.684 325.559 277.744 327.559 277.744C328.999 277.744 330.119 277.124 330.819 276.364V277.604H331.919V269.944C331.919 268.124 330.379 266.864 328.199 266.864C325.999 266.864 324.459 268.124 324.459 269.944V270.464H325.559ZM330.819 274.804C330.819 275.964 329.519 276.824 327.879 276.824C326.359 276.824 325.399 276.104 325.399 275.064V274.384C325.399 273.384 326.319 272.724 328.059 272.624L330.819 272.484V274.804ZM341.51 277.604H342.61V267.004H341.51V271.684H336.09V267.004H334.97V277.604H336.09V272.604H341.51V277.604ZM352.252 277.604H353.352V267.004H352.252V271.684H346.832V267.004H345.712V277.604H346.832V272.604H352.252V277.604ZM357.414 270.464V269.884C357.414 268.644 358.514 267.784 360.054 267.784C361.574 267.784 362.674 268.644 362.674 269.884V271.564L359.894 271.704C357.674 271.824 356.134 272.784 356.134 274.444V275.064C356.134 276.684 357.414 277.744 359.414 277.744C360.854 277.744 361.974 277.124 362.674 276.364V277.604H363.774V269.944C363.774 268.124 362.234 266.864 360.054 266.864C357.854 266.864 356.314 268.124 356.314 269.944V270.464H357.414ZM362.674 274.804C362.674 275.964 361.374 276.824 359.734 276.824C358.214 276.824 357.254 276.104 357.254 275.064V274.384C357.254 273.384 358.174 272.724 359.914 272.624L362.674 272.484V274.804Z" fill="black"/>
<path d="M47.543 207.573C94.3394 202.658 195.137 202.265 223.958 240.009" stroke="black" stroke-width="0.5"/>
<path d="M7.88 250.464C5.22 250.464 3.32 251.964 3.32 254.144V254.844H4.5V254.084C4.5 252.524 5.92 251.464 7.88 251.464C9.64 251.464 10.88 252.384 10.88 253.724V254.664C10.88 255.964 9.46 256.884 7.46 256.884H6.4V257.864H7.98C9.96 257.864 11.38 258.844 11.38 260.264V261.284C11.38 262.744 9.92 263.744 7.94 263.744C5.88 263.744 4.5 262.684 4.5 261.124V260.404H3.32V261.064C3.32 263.244 5.18 264.744 7.94 264.744C10.62 264.744 12.56 263.324 12.56 261.304V260.364C12.56 258.864 11.38 257.744 9.6 257.324C11.08 256.844 12.06 255.864 12.06 254.584V253.684C12.06 251.784 10.34 250.464 7.88 250.464ZM16.043 257.464V256.884C16.043 255.644 17.143 254.784 18.683 254.784C20.203 254.784 21.303 255.644 21.303 256.884V258.564L18.523 258.704C16.303 258.824 14.763 259.784 14.763 261.444V262.064C14.763 263.684 16.043 264.744 18.043 264.744C19.483 264.744 20.603 264.124 21.303 263.364V264.604H22.403V256.944C22.403 255.124 20.863 253.864 18.683 253.864C16.483 253.864 14.943 255.124 14.943 256.944V257.464H16.043ZM21.303 261.804C21.303 262.964 20.003 263.824 18.363 263.824C16.843 263.824 15.883 263.104 15.883 262.064V261.384C15.883 260.384 16.803 259.724 18.543 259.624L21.303 259.484V261.804ZM39.5741 267.344H40.6941V263.684H38.8341V254.004H37.7341V263.684H32.7141V254.004H31.5941V263.684H26.5741V254.004H25.4541V264.604H39.5741V267.344ZM49.2467 264.604H50.3467V254.004H49.4067L43.5467 262.724V254.004H42.4267V264.604H43.3667L49.2467 255.884V264.604ZM52.4828 254.924H56.0628V264.604H57.1828V254.924H60.7828V254.004H52.4828V254.924ZM69.455 264.604H70.555V254.004H69.455V258.684H64.035V254.004H62.915V264.604H64.035V259.604H69.455V264.604ZM73.6572 264.604H77.3372C79.6172 264.604 81.0972 263.424 81.0972 261.604V261.104C81.0972 259.304 79.6172 258.104 77.3372 258.104H74.7772V254.004H73.6572V264.604ZM77.3172 259.024C78.9572 259.024 79.9772 259.824 79.9772 261.044V261.664C79.9772 262.904 78.9572 263.684 77.3172 263.684H74.7772V259.024H77.3172ZM82.7172 264.604H83.8172V254.004H82.7172V264.604ZM93.7389 264.604H94.8389V254.004H93.8989L88.0389 262.724V254.004H86.9189V264.604H87.8589L93.7389 255.884V264.604ZM92.6789 250.404V250.824C92.6789 251.464 91.9389 251.964 90.8989 251.964C89.8389 251.964 89.0989 251.464 89.0989 250.824V250.404H88.1989V250.724C88.1989 251.884 89.2989 252.704 90.8989 252.704C92.4789 252.704 93.5789 251.884 93.5789 250.724V250.404H92.6789ZM102.212 264.604H103.332V254.924H108.212V254.004H102.212V264.604ZM111.004 257.464V256.884C111.004 255.644 112.104 254.784 113.644 254.784C115.164 254.784 116.264 255.644 116.264 256.884V258.564L113.484 258.704C111.264 258.824 109.724 259.784 109.724 261.444V262.064C109.724 263.684 111.004 264.744 113.004 264.744C114.444 264.744 115.564 264.124 116.264 263.364V264.604H117.364V256.944C117.364 255.124 115.824 253.864 113.644 253.864C111.444 253.864 109.904 255.124 109.904 256.944V257.464H111.004ZM116.264 261.804C116.264 262.964 114.964 263.824 113.324 263.824C111.804 263.824 110.844 263.104 110.844 262.064V261.384C110.844 260.384 111.764 259.724 113.504 259.624L116.264 259.484V261.804ZM123.835 253.864C121.595 253.864 119.955 255.084 119.955 256.844V257.304H121.075V256.844C121.075 255.604 122.255 254.784 123.815 254.784C125.275 254.784 126.275 255.504 126.275 256.564V257.004C126.275 258.044 125.235 258.744 123.795 258.744H122.695V259.664H124.235C125.655 259.664 126.695 260.404 126.695 261.484V261.964C126.695 263.064 125.435 263.824 123.835 263.824C122.155 263.824 121.075 262.984 121.075 261.764V261.304H119.955V261.764C119.955 263.524 121.475 264.744 123.855 264.744C126.095 264.744 127.795 263.624 127.795 262.044V261.544C127.795 260.384 126.995 259.524 125.775 259.144C126.755 258.724 127.375 257.964 127.375 256.964V256.484C127.375 254.944 125.955 253.864 123.835 253.864Z" fill="black"/>
<path d="M141.92 306.604V300.124H148.82V306.604H149.98V292.604H148.82V299.144H141.92V292.604H140.74V306.604H141.92ZM154.215 299.464V298.884C154.215 297.644 155.315 296.784 156.855 296.784C158.375 296.784 159.475 297.644 159.475 298.884V300.564L156.695 300.704C154.475 300.824 152.935 301.784 152.935 303.444V304.064C152.935 305.684 154.215 306.744 156.215 306.744C157.655 306.744 158.775 306.124 159.475 305.364V306.604H160.575V298.944C160.575 297.124 159.035 295.864 156.855 295.864C154.655 295.864 153.115 297.124 153.115 298.944V299.464H154.215ZM159.475 303.804C159.475 304.964 158.175 305.824 156.535 305.824C155.015 305.824 154.055 305.104 154.055 304.064V303.384C154.055 302.384 154.975 301.724 156.715 301.624L159.475 301.484V303.804ZM170.166 306.604H171.266V296.004H163.626V306.604H164.746V296.924H170.166V306.604ZM173.108 305.724V306.644H173.408C175.668 306.644 176.448 305.424 176.448 297.324V296.924H180.928V306.604H182.028V296.004H175.408V297.324C175.408 304.804 174.748 305.724 173.408 305.724H173.108ZM186.09 299.464V298.884C186.09 297.644 187.19 296.784 188.73 296.784C190.25 296.784 191.35 297.644 191.35 298.884V300.564L188.57 300.704C186.35 300.824 184.81 301.784 184.81 303.444V304.064C184.81 305.684 186.09 306.744 188.09 306.744C189.53 306.744 190.65 306.124 191.35 305.364V306.604H192.45V298.944C192.45 297.124 190.91 295.864 188.73 295.864C186.53 295.864 184.99 297.124 184.99 298.944V299.464H186.09ZM191.35 303.804C191.35 304.964 190.05 305.824 188.41 305.824C186.89 305.824 185.93 305.104 185.93 304.064V303.384C185.93 302.384 186.85 301.724 188.59 301.624L191.35 301.484V303.804ZM195.501 306.604H199.301C201.621 306.604 203.061 305.524 203.061 303.964V303.544C203.061 302.424 202.281 301.544 200.981 301.144C202.041 300.704 202.641 299.944 202.641 298.964V298.564C202.641 297.044 201.201 296.004 198.881 296.004H195.501V306.604ZM201.941 303.464V303.884C201.941 304.964 200.961 305.684 199.281 305.684H196.621V301.664H199.281C200.961 301.664 201.941 302.384 201.941 303.464ZM201.521 298.644V299.024C201.521 300.044 200.541 300.744 198.861 300.744H196.621V296.924H198.861C200.541 296.924 201.521 297.624 201.521 298.644ZM203.948 305.724V306.644H204.248C206.508 306.644 207.288 305.424 207.288 297.324V296.924H211.768V306.604H212.868V296.004H206.248V297.324C206.248 304.804 205.588 305.724 204.248 305.724H203.948ZM215.79 303.664C215.79 305.484 217.39 306.744 219.69 306.744C221.97 306.744 223.59 305.484 223.59 303.664V303.304H222.47V303.724C222.47 304.964 221.33 305.824 219.69 305.824C218.05 305.824 216.89 304.964 216.89 303.724V301.724H223.59V298.944C223.59 297.124 221.97 295.864 219.69 295.864C217.39 295.864 215.79 297.124 215.79 298.944V303.664ZM219.69 296.784C221.33 296.784 222.47 297.644 222.47 298.884V300.804H216.89V298.884C216.89 297.644 218.05 296.784 219.69 296.784ZM232.881 306.604H233.981V296.004H232.881V300.684H227.461V296.004H226.341V306.604H227.461V301.604H232.881V306.604ZM243.623 306.604H244.723V296.004H243.623V300.684H238.203V296.004H237.083V306.604H238.203V301.604H243.623V306.604ZM247.825 306.604H251.505C253.785 306.604 255.265 305.424 255.265 303.604V303.104C255.265 301.304 253.785 300.104 251.505 300.104H248.945V296.004H247.825V306.604ZM251.485 301.024C253.125 301.024 254.145 301.824 254.145 303.044V303.664C254.145 304.904 253.125 305.684 251.485 305.684H248.945V301.024H251.485ZM256.885 306.604H257.985V296.004H256.885V306.604ZM267.907 306.604H269.007V296.004H268.067L262.207 304.724V296.004H261.087V306.604H262.027L267.907 297.884V306.604ZM266.847 292.404V292.824C266.847 293.464 266.107 293.964 265.067 293.964C264.007 293.964 263.267 293.464 263.267 292.824V292.404H262.367V292.724C262.367 293.884 263.467 294.704 265.067 294.704C266.647 294.704 267.747 293.884 267.747 292.724V292.404H266.847ZM147.04 319.544H148.16V318.944C148.16 317.124 146.54 315.864 144.26 315.864C141.96 315.864 140.36 317.124 140.36 318.944V323.664C140.36 325.484 141.96 326.744 144.26 326.744C146.54 326.744 148.16 325.484 148.16 323.664V323.064H147.04V323.724C147.04 324.964 145.9 325.824 144.26 325.824C142.62 325.824 141.46 324.964 141.46 323.724V318.884C141.46 317.644 142.62 316.784 144.26 316.784C145.9 316.784 147.04 317.644 147.04 318.884V319.544ZM149.573 325.724V326.644H149.873C152.133 326.644 152.913 325.424 152.913 317.324V316.924H157.393V326.604H158.493V316.004H151.873V317.324C151.873 324.804 151.213 325.724 149.873 325.724H149.573ZM169.215 323.664V318.944C169.215 317.124 167.595 315.864 165.315 315.864C163.015 315.864 161.415 317.124 161.415 318.944V323.664C161.415 325.484 163.015 326.744 165.315 326.744C167.595 326.744 169.215 325.484 169.215 323.664ZM168.095 323.724C168.095 324.964 166.935 325.824 165.315 325.824C163.675 325.824 162.515 324.964 162.515 323.724V318.884C162.515 317.644 163.675 316.784 165.315 316.784C166.935 316.784 168.095 317.644 168.095 318.884V323.724ZM178.923 326.604H180.023V316.004H179.083L173.223 324.724V316.004H172.103V326.604H173.043L178.923 317.884V326.604ZM177.863 312.404V312.824C177.863 313.464 177.123 313.964 176.083 313.964C175.023 313.964 174.283 313.464 174.283 312.824V312.404H173.383V312.724C173.383 313.884 174.483 314.704 176.083 314.704C177.663 314.704 178.763 313.884 178.763 312.724V312.404H177.863ZM194.215 326.604H195.315V316.004H194.375L188.515 324.724V316.004H187.395V326.604H188.335L194.215 317.884V326.604ZM201.528 329.344H202.648V326.604H210.708V329.344H211.828V325.684H210.368V316.004H203.808V317.324C203.808 324.184 203.548 324.984 202.468 325.684H201.528V329.344ZM204.868 317.324V316.924H209.268V325.684H203.848C204.668 324.704 204.868 322.724 204.868 317.324ZM213.348 323.664C213.348 325.484 214.948 326.744 217.248 326.744C219.528 326.744 221.148 325.484 221.148 323.664V323.304H220.028V323.724C220.028 324.964 218.888 325.824 217.248 325.824C215.608 325.824 214.448 324.964 214.448 323.724V321.724H221.148V318.944C221.148 317.124 219.528 315.864 217.248 315.864C214.948 315.864 213.348 317.124 213.348 318.944V323.664ZM217.248 316.784C218.888 316.784 220.028 317.644 220.028 318.884V320.804H214.448V318.884C214.448 317.644 215.608 316.784 217.248 316.784ZM222.569 316.924H226.149V326.604H227.269V316.924H230.869V316.004H222.569V316.924ZM233.727 319.464V318.884C233.727 317.644 234.827 316.784 236.367 316.784C237.887 316.784 238.987 317.644 238.987 318.884V320.564L236.207 320.704C233.987 320.824 232.447 321.784 232.447 323.444V324.064C232.447 325.684 233.727 326.744 235.727 326.744C237.167 326.744 238.287 326.124 238.987 325.364V326.604H240.087V318.944C240.087 317.124 238.547 315.864 236.367 315.864C234.167 315.864 232.627 317.124 232.627 318.944V319.464H233.727ZM238.987 323.804C238.987 324.964 237.687 325.824 236.047 325.824C234.527 325.824 233.567 325.104 233.567 324.064V323.384C233.567 322.384 234.487 321.724 236.227 321.624L238.987 321.484V323.804ZM241.878 325.724V326.644H242.178C244.438 326.644 245.218 325.424 245.218 317.324V316.924H249.698V326.604H250.798V316.004H244.178V317.324C244.178 324.804 243.518 325.724 242.178 325.724H241.878ZM253.899 326.604H257.579C259.859 326.604 261.339 325.424 261.339 323.604V323.104C261.339 321.304 259.859 320.104 257.579 320.104H255.019V316.004H253.899V326.604ZM257.559 321.024C259.199 321.024 260.219 321.824 260.219 323.044V323.664C260.219 324.904 259.199 325.684 257.559 325.684H255.019V321.024H257.559Z" fill="black"/>
<path d="M223.21 61.9769C243.885 45.6359 261.613 15.239 167.129 24.3802" stroke="#383838" stroke-width="0.5"/>
<path d="M164.902 51.2884C180.873 45.3908 211.699 46.2755 207.242 96.9943" stroke="#383838" stroke-width="0.5"/>
<path d="M50.1371 117.267C48.6515 122.796 65.4381 130.537 171.213 129.062" stroke="#383838" stroke-width="0.5"/>
<path d="M24.5117 269.865C72.1747 273.92 170.62 277.164 183.1 257.702" stroke="#383838" stroke-width="0.5"/>
<path d="M307.889 272.076C290.805 269.128 255.819 263.672 252.551 265.442" stroke="#383838" stroke-width="0.5"/>
<path d="M458 155.604C458 150.081 462.477 145.604 468 145.604H608C613.523 145.604 618 150.081 618 155.604V230.604C618 236.126 613.523 240.604 608 240.604H468C462.477 240.604 458 236.126 458 230.604V155.604Z" fill="#47A4B5"/>
<path d="M498.279 188.104L505.279 176.264V188.104H506.459V174.104H505.419L498.399 185.964V174.104H497.219V188.104H498.279ZM516.233 181.044H517.353V180.444C517.353 178.624 515.733 177.364 513.453 177.364C511.153 177.364 509.553 178.624 509.553 180.444V185.164C509.553 186.984 511.153 188.244 513.453 188.244C515.733 188.244 517.353 186.984 517.353 185.164V184.564H516.233V185.224C516.233 186.464 515.093 187.324 513.453 187.324C511.813 187.324 510.653 186.464 510.653 185.224V180.384C510.653 179.144 511.813 178.284 513.453 178.284C515.093 178.284 516.233 179.144 516.233 180.384V181.044ZM519.086 178.424H522.666V188.104H523.786V178.424H527.386V177.504H519.086V178.424ZM536.904 185.164V180.444C536.904 178.624 535.284 177.364 533.004 177.364C530.704 177.364 529.104 178.624 529.104 180.444V185.164C529.104 186.984 530.704 188.244 533.004 188.244C535.284 188.244 536.904 186.984 536.904 185.164ZM535.784 185.224C535.784 186.464 534.624 187.324 533.004 187.324C531.364 187.324 530.204 186.464 530.204 185.224V180.384C530.204 179.144 531.364 178.284 533.004 178.284C534.624 178.284 535.784 179.144 535.784 180.384V185.224ZM546.772 177.504H545.652V182.404C545.212 182.564 544.292 182.844 543.172 182.844C541.292 182.844 540.432 182.124 540.432 180.964V177.504H539.332V180.964C539.332 182.624 540.492 183.764 542.972 183.764C544.272 183.764 545.212 183.484 545.652 183.304V188.104H546.772V177.504ZM556.391 188.104H557.491V177.504H556.391V182.184H550.971V177.504H549.851V188.104H550.971V183.104H556.391V188.104ZM567.413 188.104H568.513V177.504H567.573L561.713 186.224V177.504H560.593V188.104H561.533L567.413 179.384V188.104ZM577.869 188.104H579.189L574.329 182.604L578.849 177.504H577.529L573.049 182.604L577.869 188.104ZM571.589 188.104H572.709V177.504H571.589V188.104ZM509.057 208.104H510.157V197.504H502.517V208.104H503.637V198.424H509.057V208.104ZM520.079 208.104H521.179V197.504H520.239L514.379 206.224V197.504H513.259V208.104H514.199L520.079 199.384V208.104ZM523.315 198.424H526.895V208.104H528.015V198.424H531.615V197.504H523.315V198.424ZM534.473 200.964V200.384C534.473 199.144 535.573 198.284 537.113 198.284C538.633 198.284 539.733 199.144 539.733 200.384V202.064L536.953 202.204C534.733 202.324 533.193 203.284 533.193 204.944V205.564C533.193 207.184 534.473 208.244 536.473 208.244C537.913 208.244 539.033 207.624 539.733 206.864V208.104H540.833V200.444C540.833 198.624 539.293 197.364 537.113 197.364C534.913 197.364 533.373 198.624 533.373 200.444V200.964H534.473ZM539.733 205.304C539.733 206.464 538.433 207.324 536.793 207.324C535.273 207.324 534.313 206.604 534.313 205.564V204.884C534.313 203.884 535.233 203.224 536.973 203.124L539.733 202.984V205.304ZM550.424 208.104H551.524V197.504H550.424V202.184H545.004V197.504H543.884V208.104H545.004V203.104H550.424V208.104ZM561.446 208.104H562.546V197.504H561.606L555.746 206.224V197.504H554.626V208.104H555.566L561.446 199.384V208.104ZM572.462 197.504H568.962C566.662 197.504 565.202 198.584 565.202 200.364V200.824C565.202 202.324 566.222 203.304 567.902 203.604L564.982 208.104H566.142L569.042 203.684H571.362V208.104H572.462V197.504ZM566.302 200.884V200.304C566.302 199.104 567.322 198.424 568.962 198.424H571.362V202.764H568.962C567.322 202.764 566.302 202.084 566.302 200.884Z" fill="white"/>
<defs>
<linearGradient id="paint0_linear_411_656" x1="226.297" y1="272.501" x2="226.182" y2="203.092" gradientUnits="userSpaceOnUse">
<stop stop-color="#D9D9D9" stop-opacity="0.25"/>
<stop offset="1" stop-color="#ECD145"/>
</linearGradient>
</defs>
</svg>
