<svg width="591" height="1076" viewBox="0 0 591 1076" fill="none" xmlns="http://www.w3.org/2000/svg">
<path opacity="0.0714286" d="M-63.1414 182.598C46.5594 117.358 204.333 222.501 200.928 431.541C197.844 620.867 350.215 673.834 411.122 666.454" stroke="black"/>
<path opacity="0.142857" d="M-63.7281 177.503C51.2413 122.073 199.251 240.566 177.64 448.514C158.066 636.851 305.242 702.896 366.56 700.852" stroke="black"/>
<path opacity="0.214286" d="M-64.32 172.405C55.043 127.206 192.162 258.148 152.509 463.421C116.596 649.335 257.455 727.956 318.717 731.265" stroke="black"/>
<path opacity="0.285714" d="M-64.9089 167.303C57.9392 132.679 183.124 275.073 125.731 476.11C73.7512 658.186 207.222 748.784 267.963 757.42" stroke="black"/>
<path opacity="0.357143" d="M-65.4985 162.198C59.8999 138.412 172.198 291.176 97.5019 486.445C29.8507 663.298 154.917 765.184 214.675 779.081" stroke="black"/>
<path opacity="0.428571" d="M-66.0924 157.089C60.9018 144.323 159.458 306.293 68.0278 494.309C-14.7798 664.593 100.931 776.992 159.25 796.044" stroke="black"/>
<path opacity="0.5" d="M-66.6824 151.977C60.9412 150.328 145.006 320.271 37.5368 499.603C-59.797 662.022 45.6773 784.078 102.114 808.14" stroke="black"/>
<path opacity="0.571429" d="M-67.2722 146.862C60.0094 156.343 128.943 332.965 6.25278 502.248C-104.866 655.566 -10.4313 786.35 43.6932 815.24" stroke="black"/>
<path opacity="0.642857" d="M-67.8654 141.743C58.1056 162.281 111.383 344.24 -25.5941 502.185C-149.653 645.235 -66.9758 783.752 -15.5751 817.249" stroke="black"/>
<path opacity="0.714286" d="M-68.4539 136.622C55.2478 168.06 92.464 353.97 -57.7581 499.376C-193.812 631.069 -123.522 776.265 -75.2368 814.114" stroke="black"/>
<path opacity="0.785714" d="M-69.0412 131.496C51.4497 173.596 72.3212 362.042 -90.0023 493.802C-237.017 613.136 -179.649 763.905 -134.846 805.819" stroke="black"/>
<path opacity="0.857143" d="M-69.6311 126.367C46.7321 178.809 51.1 368.357 -122.089 485.468C-278.945 591.535 -234.936 746.73 -193.956 792.389" stroke="black"/>
<path opacity="0.928571" d="M-70.2154 121.236C41.1343 183.62 28.9655 372.827 -153.772 474.399C-319.275 566.39 -288.959 724.831 -252.115 773.888" stroke="black"/>
<path d="M-70.8018 116.102C34.6872 187.953 6.07412 375.379 -184.82 460.638C-357.711 537.855 -341.32 698.335 -308.892 750.416" stroke="black"/>
</svg>
