<svg width="148" height="311" viewBox="0 0 148 311" fill="none" xmlns="http://www.w3.org/2000/svg">
<line x1="75" y1="2.18557e-08" x2="75" y2="177.476" stroke="white"/>
<path d="M147.5 147C147.5 149.988 145.59 152.924 141.924 155.671C138.267 158.413 132.944 160.903 126.321 163.003C113.081 167.201 94.7597 169.805 74.5 169.805C54.2403 169.805 35.9186 167.201 22.6788 163.003C16.0559 160.903 10.7327 158.413 7.0759 155.671C3.41034 152.924 1.5 149.988 1.5 147C1.5 144.012 3.41034 141.077 7.0759 138.329C10.7327 135.588 16.0559 133.098 22.6788 130.998C35.9186 126.8 54.2403 124.195 74.5 124.195C94.7597 124.195 113.081 126.8 126.321 130.998C132.944 133.098 138.267 135.588 141.924 138.329C145.59 141.077 147.5 144.012 147.5 147Z" stroke="white"/>
<path d="M73.9727 123.875C114.566 123.875 147.473 113.441 147.473 100.571C147.473 87.6996 114.566 77.2656 73.9727 77.2656" stroke="white"/>
<path d="M147.5 193.609C147.5 196.597 145.59 199.532 141.924 202.28C138.267 205.022 132.944 207.512 126.321 209.611C113.081 213.81 94.7597 216.414 74.5 216.414C54.2403 216.414 35.9186 213.81 22.6788 209.611C16.0559 207.512 10.7327 205.022 7.0759 202.28C3.41034 199.532 1.5 196.597 1.5 193.609C1.5 190.621 3.41034 187.686 7.0759 184.938C10.7327 182.197 16.0559 179.707 22.6788 177.607C35.9186 173.409 54.2403 170.804 74.5 170.804C94.7597 170.804 113.081 173.409 126.321 177.607C132.944 179.707 138.267 182.197 141.924 184.938C145.59 187.686 147.5 190.621 147.5 193.609Z" stroke="white"/>
<path d="M147.5 240.22C147.5 243.208 145.59 246.143 141.924 248.891C138.267 251.632 132.944 254.122 126.321 256.222C113.081 260.42 94.7597 263.025 74.5 263.025C54.2403 263.025 35.9186 260.42 22.6788 256.222C16.0559 254.122 10.7327 251.632 7.0759 248.891C3.41034 246.143 1.5 243.208 1.5 240.22C1.5 237.232 3.41034 234.297 7.0759 231.549C10.7327 228.807 16.0559 226.317 22.6788 224.217C35.9186 220.019 54.2403 217.415 74.5 217.415C94.7597 217.415 113.081 220.019 126.321 224.217C132.944 226.317 138.267 228.807 141.924 231.549C145.59 234.297 147.5 237.232 147.5 240.22Z" stroke="white"/>
<path d="M74.5 310.134C33.9071 310.134 1 299.7 1 286.829C1 273.958 33.9071 263.524 74.5 263.524" stroke="white"/>
</svg>
