<svg width="50" height="103" viewBox="0 0 50 103" fill="none" xmlns="http://www.w3.org/2000/svg">
<line x1="25.707" y1="2.18557e-08" x2="25.707" y2="58.4467" stroke="white"/>
<path d="M48.9104 48.4107C48.9104 49.2405 48.3795 50.1201 47.2084 50.998C46.046 51.8693 44.3323 52.6753 42.1698 53.361C37.8505 54.7305 31.8526 55.5855 25.2052 55.5855C18.5579 55.5855 12.5599 54.7305 8.24067 53.361C6.07814 52.6753 4.36443 51.8693 3.20208 50.998C2.03097 50.1201 1.5 49.2405 1.5 48.4107C1.5 47.5809 2.03097 46.7013 3.20208 45.8233C4.36443 44.952 6.07814 44.146 8.24067 43.4604C12.5599 42.0908 18.5579 41.2358 25.2052 41.2358C31.8526 41.2358 37.8505 42.0908 42.1698 43.4604C44.3323 44.146 46.046 44.952 47.2084 45.8233C48.3795 46.7013 48.9104 47.5809 48.9104 48.4107Z" stroke="white"/>
<path d="M25.0312 40.795C38.3994 40.795 49.2365 37.3588 49.2365 33.1201C49.2365 28.8814 38.3994 25.4453 25.0312 25.4453" stroke="white"/>
<path d="M48.9104 63.7598C48.9104 64.5896 48.3795 65.4692 47.2084 66.3471C46.046 67.2185 44.3323 68.0244 42.1698 68.7101C37.8505 70.0796 31.8526 70.9346 25.2052 70.9346C18.5579 70.9346 12.5599 70.0796 8.24067 68.7101C6.07814 68.0244 4.36443 67.2185 3.20208 66.3471C2.03097 65.4692 1.5 64.5896 1.5 63.7598C1.5 62.93 2.03097 62.0504 3.20208 61.1725C4.36443 60.3011 6.07814 59.4952 8.24067 58.8095C12.5599 57.44 18.5579 56.585 25.2052 56.585C31.8526 56.585 37.8505 57.44 42.1698 58.8095C44.3323 59.4952 46.046 60.3011 47.2084 61.1725C48.3795 62.0504 48.9104 62.93 48.9104 63.7598Z" stroke="white"/>
<path d="M48.9104 79.1099C48.9104 79.9397 48.3795 80.8193 47.2084 81.6972C46.046 82.5686 44.3323 83.3745 42.1698 84.0602C37.8505 85.4297 31.8526 86.2847 25.2052 86.2847C18.5579 86.2847 12.5599 85.4297 8.24067 84.0602C6.07814 83.3745 4.36443 82.5686 3.20208 81.6972C2.03097 80.8193 1.5 79.9397 1.5 79.1099C1.5 78.2801 2.03097 77.4005 3.20208 76.5226C4.36443 75.6512 6.07814 74.8453 8.24067 74.1596C12.5599 72.7901 18.5579 71.9351 25.2052 71.9351C31.8526 71.9351 37.8505 72.7901 42.1698 74.1596C44.3323 74.8453 46.046 75.6512 47.2084 76.5226C48.3795 77.4005 48.9104 78.2801 48.9104 79.1099Z" stroke="white"/>
<path d="M25.2052 102.135C11.837 102.135 1 98.6984 1 94.4597C1 90.221 11.837 86.7849 25.2052 86.7849" stroke="white"/>
</svg>
