<svg width="132" height="133" viewBox="0 0 132 133" fill="none" xmlns="http://www.w3.org/2000/svg">
<path d="M29.1214 2L29.9542 1.44644L29.119 0.189868L28.2871 1.44867L29.1214 2ZM29.1214 45.233L29.117 44.233L29.1214 45.233ZM66.2646 38.6281L67.1139 38.1002L66.2621 36.7298L65.4139 38.1024L66.2646 38.6281ZM66.2646 84.8634L66.2599 83.8634L66.2646 84.8634ZM102.348 2L103.197 1.47212L102.346 0.101646L101.497 1.47434L102.348 2ZM102.348 48.2353L102.343 47.2353L102.348 48.2353ZM1 119.892C0.447715 119.892 0 120.339 0 120.892C5.96046e-08 121.444 0.447715 121.892 1 121.892L1 119.892ZM131 121.892C131.552 121.892 132 121.444 132 120.892C132 120.339 131.552 119.892 131 119.892V121.892ZM13.9729 121.832C14.3268 121.408 14.2699 120.778 13.8459 120.424C13.4219 120.07 12.7913 120.127 12.4374 120.551L13.9729 121.832ZM3.41701 131.359C3.06313 131.783 3.11999 132.414 3.54401 132.768C3.96802 133.122 4.59863 133.065 4.95251 132.641L3.41701 131.359ZM26.1759 121.832C26.5297 121.408 26.4729 120.778 26.0489 120.424C25.6249 120.07 24.9942 120.127 24.6404 120.551L26.1759 121.832ZM15.62 131.359C15.2661 131.783 15.3229 132.414 15.747 132.768C16.171 133.122 16.8016 133.065 17.1555 132.641L15.62 131.359ZM38.381 121.832C38.7349 121.408 38.678 120.778 38.254 120.424C37.83 120.07 37.1994 120.127 36.8455 120.551L38.381 121.832ZM27.8251 131.359C27.4712 131.783 27.5281 132.414 27.9521 132.768C28.3761 133.122 29.0068 133.065 29.3606 132.641L27.8251 131.359ZM50.584 121.832C50.9379 121.408 50.881 120.778 50.457 120.424C50.033 120.07 49.4024 120.127 49.0485 120.551L50.584 121.832ZM40.0281 131.359C39.6742 131.783 39.7311 132.414 40.1551 132.768C40.5791 133.122 41.2097 133.065 41.5636 132.641L40.0281 131.359ZM62.7892 121.832C63.143 121.408 63.0862 120.778 62.6622 120.424C62.2381 120.07 61.6075 120.127 61.2537 120.551L62.7892 121.832ZM52.2332 131.359C51.8794 131.783 51.9362 132.414 52.3602 132.768C52.7843 133.122 53.4149 133.065 53.7687 132.641L52.2332 131.359ZM74.9921 121.832C75.346 121.408 75.2891 120.778 74.8651 120.424C74.4411 120.07 73.8105 120.127 73.4566 120.551L74.9921 121.832ZM64.4362 131.359C64.0823 131.783 64.1392 132.414 64.5632 132.768C64.9872 133.122 65.6178 133.065 65.9717 132.641L64.4362 131.359ZM87.1973 121.832C87.5511 121.408 87.4943 120.778 87.0703 120.424C86.6463 120.07 86.0156 120.127 85.6618 120.551L87.1973 121.832ZM76.6414 131.359C76.2875 131.783 76.3443 132.414 76.7684 132.768C77.1924 133.122 77.823 133.065 78.1769 132.641L76.6414 131.359ZM99.4002 121.832C99.7541 121.408 99.6972 120.778 99.2732 120.424C98.8492 120.07 98.2186 120.127 97.8647 120.551L99.4002 121.832ZM88.8443 131.359C88.4904 131.783 88.5473 132.414 88.9713 132.768C89.3953 133.122 90.0259 133.065 90.3798 132.641L88.8443 131.359ZM111.605 121.832C111.959 121.408 111.902 120.778 111.478 120.424C111.054 120.07 110.424 120.127 110.07 120.551L111.605 121.832ZM101.049 131.359C100.696 131.783 100.752 132.414 101.176 132.768C101.601 133.122 102.231 133.065 102.585 132.641L101.049 131.359ZM123.808 121.832C124.162 121.408 124.105 120.778 123.681 120.424C123.257 120.07 122.627 120.127 122.273 120.551L123.808 121.832ZM113.252 131.359C112.899 131.783 112.955 132.414 113.379 132.768C113.803 133.122 114.434 133.065 114.788 132.641L113.252 131.359ZM126.923 62.7618C127.318 62.376 127.326 61.7429 126.94 61.3477C126.554 60.9525 125.921 60.945 125.526 61.3308L126.923 62.7618ZM65.5666 119.876C65.1714 120.262 65.1638 120.895 65.5497 121.29C65.9355 121.685 66.5686 121.693 66.9638 121.307L65.5666 119.876ZM64.7341 121.211C65.1474 121.577 65.7794 121.539 66.1457 121.126C66.512 120.712 66.4738 120.08 66.0605 119.714L64.7341 121.211ZM8.9596 70.4527L12.615 81.4058L20.273 72.7636L8.9596 70.4527ZM29.1214 2C28.2871 1.44867 28.2869 1.44903 28.2865 1.44954C28.2863 1.44994 28.2858 1.45062 28.2853 1.45141C28.2843 1.45297 28.2828 1.4552 28.2809 1.45808C28.2771 1.46384 28.2716 1.47221 28.2645 1.48315C28.2501 1.50502 28.2291 1.53717 28.2017 1.57927C28.147 1.66346 28.0668 1.78743 27.9639 1.94854C27.7581 2.27073 27.4611 2.74154 27.0939 3.33975C26.3598 4.5359 25.3443 6.24279 24.2162 8.29032C21.964 12.3781 19.2454 17.8547 17.4271 23.3496C15.6255 28.7945 14.6328 34.4722 16.0843 38.846C16.824 41.0749 18.1979 42.9614 20.3809 44.2694C22.5441 45.5654 25.427 46.2493 29.1258 46.233L29.117 44.233C25.6526 44.2483 23.163 43.6047 21.4088 42.5537C19.6744 41.5146 18.5859 40.0343 17.9825 38.2161C16.7478 34.4955 17.5459 29.3571 19.3259 23.9779C21.0893 18.6489 23.7431 13.2936 25.9679 9.25545C27.0783 7.24004 28.0776 5.56049 28.7985 4.38593C29.1588 3.79878 29.4494 3.33818 29.6493 3.02529C29.7493 2.86885 29.8265 2.74937 29.8785 2.66949C29.9044 2.62955 29.9241 2.59951 29.9371 2.5797C29.9435 2.5698 29.9484 2.56246 29.9515 2.55771C29.9531 2.55534 29.9542 2.55362 29.9549 2.55255C29.9552 2.55202 29.9554 2.55171 29.9556 2.55145C29.9557 2.5513 29.9557 2.55133 29.1214 2ZM29.1258 46.233C32.825 46.2167 35.7065 45.5073 37.8675 44.1936C40.0475 42.8683 41.4197 40.9724 42.1588 38.7388C43.6098 34.3538 42.6176 28.6847 40.8154 23.2542C38.9969 17.7746 36.278 12.3213 34.0256 8.25306C32.8974 6.21528 31.8819 4.51717 31.1476 3.32735C30.7805 2.73231 30.4834 2.26405 30.2775 1.94361C30.1746 1.78338 30.0944 1.66009 30.0397 1.57635C30.0123 1.53449 29.9913 1.50251 29.9769 1.48075C29.9697 1.46987 29.9642 1.46154 29.9604 1.45581C29.9585 1.45294 29.9571 1.45072 29.956 1.44916C29.9555 1.44838 29.9551 1.4477 29.9548 1.44731C29.9545 1.44679 29.9542 1.44644 29.1214 2C28.2886 2.55356 28.2886 2.55354 28.2887 2.55368C28.2889 2.55395 28.2891 2.55425 28.2894 2.55478C28.2901 2.55583 28.2912 2.55754 28.2928 2.5599C28.2959 2.56461 28.3007 2.5719 28.3072 2.58174C28.3202 2.60142 28.3398 2.63127 28.3658 2.67097C28.4177 2.75037 28.495 2.86915 28.5949 3.02467C28.7947 3.33575 29.0853 3.79373 29.4456 4.37765C30.1664 5.54573 31.1656 7.21633 32.2759 9.22179C34.5005 13.24 37.1541 18.5714 38.9172 23.8842C40.6967 29.2462 41.4953 34.3775 40.2601 38.1105C39.656 39.9359 38.5659 41.4284 36.8285 42.4846C35.072 43.5525 32.5811 44.2178 29.117 44.233L29.1258 46.233ZM66.2646 38.6281C65.4139 38.1024 65.4137 38.1028 65.4133 38.1033C65.4131 38.1038 65.4126 38.1045 65.4121 38.1053C65.4111 38.107 65.4097 38.1093 65.4078 38.1124C65.404 38.1185 65.3985 38.1274 65.3914 38.1391C65.3771 38.1624 65.3561 38.1967 65.3288 38.2416C65.2742 38.3315 65.1941 38.4639 65.0913 38.636C64.8857 38.9802 64.5889 39.4833 64.222 40.1226C63.4884 41.4009 62.4736 43.2251 61.3463 45.4134C59.0951 49.7831 56.3797 55.6336 54.5644 61.5007C52.7635 67.321 51.783 73.3569 53.2215 77.9924C53.9528 80.3491 55.3144 82.3579 57.4985 83.7574C59.6669 85.1468 62.56 85.8808 66.2693 85.8634L66.2599 83.8634C62.8059 83.8797 60.3265 83.1941 58.5775 82.0735C56.8443 80.9629 55.7434 79.3712 55.1317 77.3997C53.8839 73.3787 54.6942 67.8473 56.475 62.0919C58.2413 56.3834 60.8984 50.6498 63.1242 46.3293C64.2354 44.1725 65.2353 42.3751 65.9567 41.1181C66.3173 40.4897 66.6082 39.9967 66.8083 39.6617C66.9083 39.4942 66.9857 39.3662 67.0377 39.2806C67.0638 39.2378 67.0835 39.2056 67.0965 39.1844C67.103 39.1737 67.1079 39.1658 67.111 39.1607C67.1126 39.1582 67.1137 39.1563 67.1144 39.1551C67.1148 39.1546 67.115 39.1542 67.1152 39.1539C67.1153 39.1538 67.1153 39.1538 66.2646 38.6281ZM66.2693 85.8634C69.979 85.8459 72.8704 85.0845 75.0362 83.6764C77.2172 82.2585 78.5771 80.2397 79.3079 77.8778C80.7459 73.2302 79.7658 67.2035 77.9646 61.3988C76.149 55.5481 73.4333 49.7225 71.182 45.3737C70.0545 43.1958 69.0397 41.381 68.306 40.1095C67.939 39.4736 67.6422 38.9732 67.4366 38.6309C67.3338 38.4597 67.2537 38.3281 67.1991 38.2387C67.1717 38.194 67.1507 38.1599 67.1365 38.1367C67.1293 38.1251 67.1238 38.1162 67.12 38.1101C67.1182 38.1071 67.1167 38.1047 67.1157 38.1031C67.1152 38.1023 67.1147 38.1015 67.1145 38.1011C67.1141 38.1006 67.1139 38.1002 66.2646 38.6281C65.4153 39.156 65.4153 39.156 65.4154 39.1561C65.4155 39.1564 65.4158 39.1568 65.4161 39.1573C65.4168 39.1585 65.418 39.1603 65.4195 39.1629C65.4227 39.168 65.4275 39.1758 65.434 39.1864C65.4471 39.2075 65.4668 39.2395 65.4928 39.282C65.5448 39.3671 65.6221 39.4943 65.7222 39.6608C65.9223 39.9939 66.2131 40.4841 66.5737 41.109C67.295 42.3591 68.2948 44.147 69.4059 46.2932C71.6315 50.5924 74.2883 56.3003 76.0544 61.9916C77.8348 67.7289 78.6455 73.2525 77.3973 77.2867C76.785 79.2656 75.6825 80.8707 73.9461 81.9996C72.1945 83.1384 69.7135 83.8472 66.2599 83.8634L66.2693 85.8634ZM102.348 2C101.497 1.47434 101.497 1.4747 101.497 1.47524C101.496 1.47566 101.496 1.47637 101.496 1.4772C101.494 1.47886 101.493 1.48122 101.491 1.48428C101.487 1.4904 101.482 1.49931 101.475 1.51097C101.46 1.53428 101.44 1.56858 101.412 1.61351C101.358 1.70338 101.278 1.83578 101.175 2.00788C100.969 2.35207 100.672 2.85517 100.305 3.49445C99.5718 4.77277 98.557 6.59699 97.4297 8.78525C95.1785 13.1549 92.4631 19.0055 90.6478 24.8726C88.8469 30.6929 87.8664 36.7287 89.3049 41.3643C90.0362 43.721 91.3977 45.7298 93.5819 47.1293C95.7503 48.5187 98.6434 49.2527 102.353 49.2353L102.343 47.2353C98.8893 47.2516 96.4099 46.566 94.6609 45.4453C92.9277 44.3348 91.8268 42.7431 91.215 40.7715C89.9673 36.7506 90.7776 31.2192 92.5584 25.4638C94.3247 19.7552 96.9818 14.0217 99.2076 9.7012C100.319 7.54437 101.319 5.74698 102.04 4.48996C102.401 3.86157 102.692 3.36856 102.892 3.03357C102.992 2.86608 103.069 2.73812 103.121 2.65252C103.147 2.60972 103.167 2.57751 103.18 2.55625C103.186 2.54562 103.191 2.53772 103.194 2.53261C103.196 2.53006 103.197 2.52819 103.198 2.52703C103.198 2.52645 103.198 2.52611 103.199 2.52582C103.199 2.52565 103.199 2.52566 102.348 2ZM102.353 49.2353C106.062 49.2178 108.954 48.4564 111.12 47.0483C113.301 45.6303 114.661 43.6116 115.391 41.2497C116.829 36.6021 115.849 30.5754 114.048 24.7707C112.232 18.92 109.517 13.0944 107.265 8.74556C106.138 6.56773 105.123 4.7529 104.389 3.48136C104.022 2.84546 103.726 2.3451 103.52 2.00279C103.417 1.83162 103.337 1.69995 103.282 1.61057C103.255 1.56588 103.234 1.53177 103.22 1.50857C103.213 1.49698 103.207 1.48811 103.203 1.48202C103.202 1.47898 103.2 1.47663 103.199 1.47497C103.199 1.47415 103.198 1.47343 103.198 1.47302C103.198 1.47248 103.197 1.47212 102.348 2C101.499 2.52788 101.499 2.52787 101.499 2.52803C101.499 2.52832 101.499 2.52866 101.5 2.52924C101.5 2.53039 101.501 2.53223 101.503 2.53477C101.506 2.53985 101.511 2.54769 101.517 2.55825C101.53 2.57938 101.55 2.61139 101.576 2.65393C101.628 2.73902 101.706 2.86622 101.806 3.03274C102.006 3.36579 102.296 3.856 102.657 4.48093C103.378 5.73103 104.378 7.51885 105.489 9.66504C107.715 13.9643 110.372 19.6722 112.138 25.3635C113.918 31.1008 114.729 36.6244 113.481 40.6586C112.868 42.6375 111.766 44.2425 110.029 45.3715C108.278 46.5103 105.797 47.2191 102.343 47.2353L102.353 49.2353ZM1 121.892L131 121.892V119.892L1 119.892L1 121.892ZM12.4374 120.551L3.41701 131.359L4.95251 132.641L13.9729 121.832L12.4374 120.551ZM24.6404 120.551L15.62 131.359L17.1555 132.641L26.1759 121.832L24.6404 120.551ZM36.8455 120.551L27.8251 131.359L29.3606 132.641L38.381 121.832L36.8455 120.551ZM49.0485 120.551L40.0281 131.359L41.5636 132.641L50.584 121.832L49.0485 120.551ZM61.2537 120.551L52.2332 131.359L53.7687 132.641L62.7892 121.832L61.2537 120.551ZM73.4566 120.551L64.4362 131.359L65.9717 132.641L74.9921 121.832L73.4566 120.551ZM85.6618 120.551L76.6414 131.359L78.1769 132.641L87.1973 121.832L85.6618 120.551ZM97.8647 120.551L88.8443 131.359L90.3798 132.641L99.4002 121.832L97.8647 120.551ZM110.07 120.551L101.049 131.359L102.585 132.641L111.605 121.832L110.07 120.551ZM122.273 120.551L113.252 131.359L114.788 132.641L123.808 121.832L122.273 120.551ZM125.526 61.3308L65.5666 119.876L66.9638 121.307L126.923 62.7618L125.526 61.3308ZM66.0605 119.714L16.3588 75.673L15.0324 77.1699L64.7341 121.211L66.0605 119.714Z" fill="black"/>
</svg>
