<svg width="130" height="124" viewBox="0 0 130 124" fill="none" xmlns="http://www.w3.org/2000/svg">
<path d="M100.266 53.6577C100.266 53.6577 93.0528 66.6419 94.4954 66.6419C95.9381 66.6419 114.693 66.6419 114.693 66.6419M114.693 66.6419L110.365 63.7565M114.693 66.6419L110.365 70.2486" stroke="black"/>
<path d="M100.404 43.0547L120.56 25.7365L113.839 40.5803L122.375 45.1118L103.23 60.5647L108.956 47.5945L100.404 43.0547Z" stroke="black"/>
<rect x="48.1094" y="1.5" width="33.6244" height="120.185" stroke="black"/>
<path d="M89.4453 122.186L89.4453 1.00023M89.2894 110.808L83.6746 119.217M89.2894 99.4324L83.6746 107.841M89.2894 88.0548L83.6746 96.4636M89.2894 76.6793L83.6746 85.0881M89.2894 65.3017L83.6746 73.7105M89.2894 53.9262L83.6746 62.335M89.2894 42.5486L83.6746 50.9574M89.2894 31.1731L83.6746 39.5818M89.2894 19.7955L83.6746 28.2043M89.2894 8.41994L83.6746 16.8287" stroke="black" stroke-width="2" stroke-linecap="round"/>
<path d="M40.3945 122.186L40.3945 1.00023M40.5505 110.808L46.1653 119.217M40.5505 99.4324L46.1653 107.841M40.5505 88.0548L46.1653 96.4636M40.5505 76.6793L46.1653 85.0881M40.5505 65.3017L46.1653 73.7105M40.5505 53.9262L46.1653 62.335M40.5505 42.5486L46.1653 50.9574M40.5505 31.1731L46.1653 39.5818M40.5505 19.7955L46.1653 28.2043M40.5505 8.41994L46.1653 16.8287" stroke="black" stroke-width="2" stroke-linecap="round"/>
<path d="M29.7299 53.6577C29.7299 53.6577 36.9433 66.6419 35.5007 66.6419C34.058 66.6419 15.3031 66.6419 15.3031 66.6419M15.3031 66.6419L19.6311 63.7565M15.3031 66.6419L19.6311 70.2486" stroke="black"/>
<path d="M29.5957 43.0547L9.44047 25.7365L16.1615 40.5803L7.62544 45.1118L26.7704 60.5647L21.044 47.5945L29.5957 43.0547Z" stroke="black"/>
</svg>
