<svg width="130" height="138" viewBox="0 0 130 138" fill="none" xmlns="http://www.w3.org/2000/svg">
<rect x="0.5" y="64.3032" width="129" height="28.5787" rx="4.5" stroke="black"/>
<rect x="0.5" y="98.332" width="129" height="39.1685" rx="4.5" stroke="black"/>
<path d="M115.473 38.2428C114.231 41.0506 114.912 42.4667 116.869 42.5295C118.744 42.6473 119.859 41.0253 118.499 38.2428L118.404 15.454H115.473V38.2428Z" fill="#F04A16"/>
<path d="M115.473 15.454V38.2428C114.231 41.0507 114.912 42.4667 116.869 42.5295C118.744 42.6473 119.859 41.0253 118.499 38.2428L118.404 15.454M115.473 15.454V12.5144C115.903 11.6303 117.088 10.3925 118.392 12.5144L118.404 15.454M115.473 15.454H118.404" stroke="black"/>
<path d="M44.4483 81.7974V75.2874H47.8583V81.7974H48.4483V74.7974H43.8583V81.7974H44.4483ZM53.8964 80.3274V77.9674C53.8964 77.0574 53.0864 76.4274 51.9464 76.4274C50.7964 76.4274 49.9964 77.0574 49.9964 77.9674V80.3274C49.9964 81.2374 50.7964 81.8674 51.9464 81.8674C53.0864 81.8674 53.8964 81.2374 53.8964 80.3274ZM53.3364 80.3574C53.3364 80.9774 52.7564 81.4074 51.9464 81.4074C51.1264 81.4074 50.5464 80.9774 50.5464 80.3574V77.9374C50.5464 77.3174 51.1264 76.8874 51.9464 76.8874C52.7564 76.8874 53.3364 77.3174 53.3364 77.9374V80.3574ZM58.4803 81.7974H59.1403L56.7103 79.0474L58.9703 76.4974H58.3103L56.0703 79.0474L58.4803 81.7974ZM55.3403 81.7974H55.9003V76.4974H55.3403V81.7974ZM60.0766 83.7974H60.6366V81.2074C60.9566 81.5774 61.4766 81.8674 62.1766 81.8674C63.1966 81.8674 63.8966 81.2774 63.8966 80.4274V77.8674C63.8966 77.0174 63.1966 76.4274 62.1766 76.4274C61.4766 76.4274 60.9566 76.7274 60.6366 77.0874V76.4974H60.0766V83.7974ZM62.0166 81.4074C61.2166 81.4074 60.6366 80.9874 60.6366 80.3974V77.8574C60.6666 77.2874 61.2366 76.8874 62.0166 76.8874C62.7966 76.8874 63.3466 77.3074 63.3466 77.8674V80.4274C63.3466 80.9874 62.7966 81.4074 62.0166 81.4074ZM65.3501 81.7974H67.1901C68.3301 81.7974 69.0701 81.2074 69.0701 80.2974V80.0474C69.0701 79.1474 68.3301 78.5474 67.1901 78.5474H65.9101V76.4974H65.3501V81.7974ZM67.1801 79.0074C68.0001 79.0074 68.5101 79.4074 68.5101 80.0174V80.3274C68.5101 80.9474 68.0001 81.3374 67.1801 81.3374H65.9101V79.0074H67.1801ZM69.8801 81.7974H70.4301V76.4974H69.8801V81.7974ZM71.5109 76.9574H73.3009V81.7974H73.8609V76.9574H75.6609V76.4974H71.5109V76.9574ZM80.137 81.7974H80.687V76.4974H80.217L77.287 80.8574V76.4974H76.727V81.7974H77.197L80.137 77.4374V81.7974ZM82.1351 80.3274C82.1351 81.2374 82.9351 81.8674 84.0851 81.8674C85.2251 81.8674 86.0351 81.2374 86.0351 80.3274V80.1474H85.4751V80.3574C85.4751 80.9774 84.9051 81.4074 84.0851 81.4074C83.2651 81.4074 82.6851 80.9774 82.6851 80.3574V79.3574H86.0351V77.9674C86.0351 77.0574 85.2251 76.4274 84.0851 76.4274C82.9351 76.4274 82.1351 77.0574 82.1351 77.9674V80.3274ZM84.0851 76.8874C84.9051 76.8874 85.4751 77.3174 85.4751 77.9374V78.8974H82.6851V77.9374C82.6851 77.3174 83.2651 76.8874 84.0851 76.8874Z" fill="black"/>
<path d="M48.795 120.398V114.688L50.865 119.058H51.215L53.305 114.658V120.398H53.855V113.398H53.345L51.035 118.198L48.755 113.398H48.245V120.398H48.795ZM55.4085 118.928C55.4085 119.838 56.2085 120.468 57.3585 120.468C58.4985 120.468 59.3085 119.838 59.3085 118.928V118.748H58.7485V118.958C58.7485 119.578 58.1785 120.008 57.3585 120.008C56.5385 120.008 55.9585 119.578 55.9585 118.958V117.958H59.3085V116.568C59.3085 115.658 58.4985 115.028 57.3585 115.028C56.2085 115.028 55.4085 115.658 55.4085 116.568V118.928ZM57.3585 115.488C58.1785 115.488 58.7485 115.918 58.7485 116.538V117.498H55.9585V116.538C55.9585 115.918 56.5385 115.488 57.3585 115.488ZM60.0188 115.558H61.8088V120.398H62.3688V115.558H64.1688V115.098H60.0188V115.558ZM65.5977 116.828V116.538C65.5977 115.918 66.1477 115.488 66.9177 115.488C67.6777 115.488 68.2277 115.918 68.2277 116.538V117.378L66.8377 117.448C65.7277 117.508 64.9577 117.988 64.9577 118.818V119.128C64.9577 119.938 65.5977 120.468 66.5977 120.468C67.3177 120.468 67.8777 120.158 68.2277 119.778V120.398H68.7777V116.568C68.7777 115.658 68.0077 115.028 66.9177 115.028C65.8177 115.028 65.0477 115.658 65.0477 116.568V116.828H65.5977ZM68.2277 118.998C68.2277 119.578 67.5777 120.008 66.7577 120.008C65.9977 120.008 65.5177 119.648 65.5177 119.128V118.788C65.5177 118.288 65.9777 117.958 66.8477 117.908L68.2277 117.838V118.998ZM69.6732 119.958V120.418H69.8232C70.9532 120.418 71.3432 119.808 71.3432 115.758V115.558H73.5832V120.398H74.1332V115.098H70.8232V115.758C70.8232 119.498 70.4932 119.958 69.8232 119.958H69.6732ZM75.0541 119.958V120.418H75.2041C76.3341 120.418 76.7241 119.808 76.7241 115.758V115.558H78.9641V120.398H79.5141V115.098H76.2041V115.758C76.2041 119.498 75.8741 119.958 75.2041 119.958H75.0541Z" fill="black"/>
<path d="M21.2653 0V57.423M21.2653 57.423L17.0117 50.3338M21.2653 57.423L25.5188 50.3338" stroke="black" stroke-width="2"/>
<path d="M41.8278 0V57.423M41.8278 57.423L37.5742 50.3338M41.8278 57.423L46.0813 50.3338" stroke="black" stroke-width="2"/>
<path d="M62.3864 0V57.423M62.3864 57.423L58.1328 50.3338M62.3864 57.423L66.6399 50.3338" stroke="black" stroke-width="2"/>
<path d="M82.9411 0V57.423M82.9411 57.423L78.6875 50.3338M82.9411 57.423L87.1946 50.3338" stroke="black" stroke-width="2"/>
<path d="M103.507 0V57.423M103.507 57.423L99.2539 50.3338M103.507 57.423L107.761 50.3338" stroke="black" stroke-width="2"/>
</svg>
