<svg width="130" height="137" viewBox="0 0 130 137" fill="none" xmlns="http://www.w3.org/2000/svg">
<path d="M16.1155 16.984L11.9858 12.6747L20.7978 6.38042L24.8318 10.9646L25.1286 11.3018L25.4955 11.0428C26.0254 10.6687 27 10.0848 28.1686 9.57641C29.3402 9.06676 30.6744 8.64731 31.9322 8.57332L32.4929 8.54034L32.3953 7.98729L31.3052 1.81056L41.4938 0.559337L42.0391 6.73961L42.0793 7.19566H42.5372C43.3697 7.19566 44.7227 7.26329 46.0561 7.4657C47.4148 7.67196 48.6561 8.0051 49.34 8.4838L49.8649 8.85124L50.0937 8.25275L52.4713 2.03435L62.1723 5.9866L59.5998 12.4179L59.421 12.865L59.861 13.0605C60.4282 13.3126 61.3797 13.8023 62.3614 14.4407C63.3479 15.0822 64.3327 15.8534 64.9942 16.6619L65.2837 17.0157L65.6619 16.759L70.7925 13.2776L77.0819 21.1842L72.1637 25.0095L71.8465 25.2562L72.0193 25.6191C72.6789 27.0043 74.0922 30.1203 74.5519 31.6527L74.6842 32.0937L75.1346 31.9981L81.1033 30.732L82.3525 40.3687L76.1116 41.6536L75.7124 41.7357V42.1433C75.7124 43.2801 75.6537 45.0123 75.4794 46.5116C75.392 47.2635 75.2776 47.9379 75.1334 48.4441C75.061 48.6979 74.9862 48.8913 74.9135 49.0252C74.846 49.1496 74.803 49.1806 74.8034 49.1813L73.8383 49.6639L74.8355 50.087L80.8756 52.6494L77.1233 61.5835L71.6718 59.4029L71.318 59.2614L71.0877 59.5649C70.3696 60.5116 69.2647 61.9095 68.2841 63.0281C67.7919 63.5896 67.342 64.068 66.9932 64.383C66.8158 64.5432 66.6847 64.6427 66.6 64.6918C66.573 64.7075 66.5604 64.7122 66.5604 64.7123C66.5605 64.7123 66.5652 64.7107 66.5743 64.7087C66.597 64.7038 66.7138 64.684 66.8401 64.7682L66.1628 65.4843L70.0026 70.604L62.1132 76.7004L58.0885 71.761L57.824 71.4364L57.458 71.6398C56.5791 72.1281 55.2231 72.8401 54.0135 73.389C53.407 73.6642 52.8502 73.8926 52.4141 74.0321C52.1948 74.1023 52.0216 74.1449 51.8962 74.1628C51.8355 74.1714 51.8001 74.1721 51.7838 74.1718L51.073 73.8165L51.0962 74.6508L51.2801 81.2718L41.5982 82.1683L40.8675 75.9571L40.8172 75.5296L40.387 75.5157C39.3738 75.4831 37.805 75.4144 36.3936 75.3149C35.6874 75.2651 35.0257 75.2079 34.4948 75.1442C33.9382 75.0775 33.5921 75.0104 33.4671 74.9604L33.0215 74.7822L32.8251 75.2202L30.4607 80.4946L20.9674 76.7331L23.2945 71.8999L23.4784 71.518L23.1318 71.2741C22.2517 70.6548 20.9227 69.6774 19.7974 68.76C19.2337 68.3004 18.7298 67.8629 18.3608 67.497C18.1757 67.3135 18.0331 67.1564 17.9356 67.0298C17.8416 66.9076 17.8208 66.853 17.8195 66.8535C17.8193 66.8536 17.8195 66.8549 17.82 66.8573L17.6668 66.0912L17.0349 66.5529L12.3023 70.0115L6.0174 62.1105L10.7515 58.2868L11.0692 58.0302L10.8812 57.6676C10.4257 56.7891 9.75232 55.4129 9.21393 54.1431C8.94435 53.5073 8.71267 52.9077 8.55884 52.415C8.48185 52.1684 8.42718 51.9575 8.39625 51.7875C8.36348 51.6073 8.36514 51.5131 8.37045 51.4813L8.47662 50.8442L7.8333 50.901L1.62737 51.4486L0.548959 41.2036L6.75408 40.4736L7.19566 40.4217V39.9771C7.19566 38.9663 7.22507 37.4221 7.31277 36.0758C7.3567 35.4013 7.4146 34.7875 7.48863 34.3188C7.5258 34.0835 7.56515 33.8972 7.60481 33.7632C7.63379 33.6654 7.65471 33.625 7.65795 33.617L8.12397 33.151L7.51578 32.8371L1.81978 29.8972L5.76169 20.4008L10.9835 23.2818L11.5095 23.572L11.6994 23.0021C11.9232 22.3308 13.1259 20.1972 16.0766 17.7124L16.4844 17.369L16.1155 16.984ZM62.9119 40.174C62.9119 51.4266 53.7898 60.5487 42.5372 60.5487C31.2845 60.5487 22.1624 51.4266 22.1624 40.174C22.1624 28.9213 31.2845 19.7993 42.5372 19.7993C53.7898 19.7993 62.9119 28.9213 62.9119 40.174ZM42.3402 69.4259C58.4858 69.4259 71.5922 56.6036 71.5922 40.7648C71.5922 24.9259 58.4858 12.1036 42.3402 12.1036C26.1946 12.1036 13.0883 24.9259 13.0883 40.7648C13.0883 56.6036 26.1946 69.4259 42.3402 69.4259Z" stroke="black"/>
<path d="M73.2263 77.0942L70.1449 73.2794L77.7828 68.7228L80.7792 72.7727L81.047 73.1346L81.4349 72.9061C81.8977 72.6335 82.7454 72.2161 83.7493 71.8748C84.7563 71.5325 85.887 71.2782 86.9266 71.3038L87.4877 71.3176L87.4368 70.7586L86.968 65.6086L95.3735 65.2806L95.3956 70.3962L95.3976 70.8541L95.8539 70.8923C96.5441 70.95 97.6626 71.1003 98.7547 71.3612C99.8717 71.628 100.866 71.9894 101.386 72.4235L101.879 72.8348L102.157 72.2561L104.536 67.3039L112.196 71.2062L109.639 76.3267L109.424 76.7568L109.845 76.9883C110.296 77.2364 111.051 77.7093 111.821 78.3081C112.595 78.9105 113.355 79.6172 113.842 80.3286L114.102 80.7064L114.501 80.4812L118.952 77.969L123.552 84.8798L119.255 87.6872L118.919 87.9066L119.061 88.2819C119.514 89.4859 120.471 92.1811 120.746 93.4858L120.841 93.9369L121.298 93.8789L126.271 93.2489L126.631 101.221L121.417 101.85L121.012 101.899L120.978 102.305C120.899 103.253 120.729 104.692 120.48 105.928C120.355 106.548 120.214 107.099 120.06 107.505C119.983 107.71 119.91 107.86 119.844 107.96C119.802 108.024 119.775 108.05 119.768 108.056L118.78 108.452L119.736 108.957L124.518 111.48L120.841 118.538L116.524 116.373L116.183 116.202L115.928 116.486C115.264 117.226 114.247 118.315 113.354 119.179C112.905 119.613 112.499 119.978 112.191 120.214C112.033 120.334 111.922 120.404 111.856 120.436C111.822 120.452 111.826 120.445 111.858 120.441C111.889 120.437 112.014 120.428 112.138 120.526L111.402 121.182L114.202 125.659L107.337 130.114L104.374 125.774L104.137 125.428L103.755 125.6C102.99 125.946 101.812 126.446 100.769 126.819C100.245 127.006 99.769 127.157 99.4006 127.242C99.2151 127.284 99.0729 127.307 98.9737 127.313C98.9447 127.314 98.9239 127.314 98.9101 127.314L98.2428 126.906L98.1962 127.741L97.891 133.208L89.9183 133.28L89.7462 128.121L89.7318 127.69L89.3042 127.641C88.463 127.543 87.1618 127.376 85.9941 127.195C85.4098 127.104 84.864 127.011 84.428 126.921C83.9666 126.826 83.6941 126.747 83.6049 126.703L83.1752 126.487L82.943 126.908L80.6422 131.08L73.144 127.35L75.377 123.55L75.5913 123.186L75.2672 122.914C74.5782 122.336 73.5407 121.429 72.669 120.586C72.2322 120.163 71.8452 119.765 71.5658 119.436C71.4256 119.272 71.3203 119.134 71.2507 119.025C71.1931 118.936 71.1788 118.895 71.1769 118.893L71.09 118.13L70.4212 118.539L66.304 121.056L61.7076 114.151L65.8533 111.332L66.1903 111.103L66.0339 110.727C65.7163 109.963 65.2522 108.769 64.8931 107.673C64.7133 107.124 64.5631 106.61 64.4702 106.192C64.4237 105.982 64.3936 105.806 64.3801 105.666C64.3734 105.597 64.3713 105.541 64.3724 105.499C64.3729 105.479 64.3741 105.463 64.3754 105.452C64.3761 105.446 64.3767 105.442 64.3771 105.44C64.3776 105.437 64.378 105.436 64.3779 105.436L64.5366 104.81L63.8909 104.813L58.7627 104.837L58.5835 96.3652L63.7239 96.1908L64.1681 96.1758L64.2052 95.7328C64.2758 94.8898 64.408 93.6039 64.5748 92.4879C64.6584 91.9286 64.7491 91.4227 64.8427 91.0399C64.8897 90.8476 64.9346 90.6985 64.9752 90.594C64.9962 90.5399 65.0113 90.5107 65.018 90.4983L65.5113 90.0801L64.9331 89.7169L60.4557 86.904L64.3278 79.3947L68.4005 82.1136L68.901 82.4477L69.1378 81.8946C69.3634 81.3676 70.5023 79.6802 73.1269 77.816L73.5606 77.508L73.2263 77.0942ZM110.45 99.768C109.668 109.122 101.468 116.071 92.139 115.29C82.8096 114.51 75.8789 106.295 76.6617 96.9407C77.4444 87.5862 85.6438 80.6379 94.9732 81.4185C104.303 82.1992 111.233 90.4135 110.45 99.768ZM91.341 122.852C104.838 123.981 116.694 114.153 117.805 100.88C118.916 87.607 108.857 75.9456 95.3604 74.8162C81.8634 73.6869 70.0071 83.5146 68.8965 96.7879C67.7859 110.061 77.844 121.723 91.341 122.852Z" stroke="black"/>
<path d="M85.4328 24.8643C88.0678 29.8154 91.8924 42.3301 86.1115 52.78" stroke="black"/>
<path d="M88.231 21.015C91.1265 25.8184 96.7837 37.8981 91.5699 48.6418" stroke="black"/>
<path d="M56.5229 89.8008C54.2254 93.0173 50.7725 100.947 55.3414 106.934" stroke="black"/>
<path d="M54.7452 85.4683C51.0862 90.5885 45.7864 103.035 53.86 111.857" stroke="black"/>
</svg>
