<svg width="160" height="493" viewBox="0 0 160 493" fill="none" xmlns="http://www.w3.org/2000/svg">
<line y1="-0.5" x2="304.237" y2="-0.5" transform="matrix(0.0023331 0.999997 -0.999995 0.00315734 79.7891 0.857422)" stroke="#47A4B5"/>
<path d="M159.5 261.926C159.5 266.309 157.363 270.53 153.402 274.418C149.44 278.308 143.681 281.834 136.523 284.806C122.211 290.749 102.404 294.436 80.5001 294.436C58.5961 294.436 38.7892 290.749 24.4768 284.806C17.3195 281.834 11.5601 278.308 7.59779 274.418C3.63715 270.53 1.5 266.309 1.5 261.926C1.5 257.543 3.63715 253.321 7.59779 249.433C11.5601 245.543 17.3195 242.017 24.4768 239.045C38.7892 233.103 58.5961 229.415 80.5001 229.415C102.404 229.415 122.211 233.103 136.523 239.045C143.681 242.017 149.44 245.543 153.402 249.433C157.363 253.321 159.5 257.543 159.5 261.926Z" stroke="#47A4B5"/>
<path d="M79.9297 229.17C123.836 229.17 159.43 214.39 159.43 196.159C159.43 177.928 123.836 163.148 79.9297 163.148" stroke="#47A4B5"/>
<path d="M159.5 327.947C159.5 332.33 157.363 336.551 153.402 340.44C149.44 344.329 143.681 347.856 136.523 350.827C122.211 356.77 102.404 360.458 80.5001 360.458C58.5961 360.458 38.7892 356.77 24.4768 350.827C17.3195 347.856 11.5601 344.329 7.59779 340.44C3.63715 336.551 1.5 332.33 1.5 327.947C1.5 323.564 3.63715 319.343 7.59779 315.455C11.5601 311.565 17.3195 308.039 24.4768 305.067C38.7892 299.124 58.5961 295.437 80.5001 295.437C102.404 295.437 122.211 299.124 136.523 305.067C143.681 308.039 149.44 311.565 153.402 315.455C157.363 319.343 159.5 323.564 159.5 327.947Z" stroke="#47A4B5"/>
<path d="M159.5 393.969C159.5 398.352 157.363 402.573 153.402 406.461C149.44 410.351 143.681 413.877 136.523 416.849C122.211 422.792 102.404 426.479 80.5001 426.479C58.5961 426.479 38.7892 422.792 24.4768 416.849C17.3195 413.877 11.5601 410.351 7.59779 406.461C3.63715 402.573 1.5 398.352 1.5 393.969C1.5 389.586 3.63715 385.364 7.59779 381.476C11.5601 377.586 17.3195 374.06 24.4768 371.088C38.7892 365.145 58.5961 361.458 80.5001 361.458C102.404 361.458 122.211 365.145 136.523 371.088C143.681 374.06 149.44 377.586 153.402 381.476C157.363 385.364 159.5 389.586 159.5 393.969Z" stroke="#47A4B5"/>
<path d="M80.5001 493C36.5934 493 1 478.22 1 459.989C1 441.758 36.5934 426.979 80.5001 426.979" stroke="#47A4B5"/>
</svg>
