<svg width="121" height="167" viewBox="0 0 121 167" fill="none" xmlns="http://www.w3.org/2000/svg">
<g filter="url(#filter0_f_1059_105)">
<line x1="63.3125" y1="40" x2="63.3125" y2="130.775" stroke="#47A4B5" stroke-width="2"/>
<path d="M82.6226 119.353C82.6226 120.218 82.2028 121.135 81.249 122.067C80.2919 123.002 78.8552 123.89 76.9987 124.657C73.2903 126.19 68.0981 127.161 62.3113 127.161C56.5245 127.161 51.3323 126.19 47.6239 124.657C45.7674 123.89 44.3307 123.002 43.3736 122.067C42.4198 121.135 42 120.218 42 119.353C42 118.489 42.4198 117.572 43.3736 116.64C44.3307 115.705 45.7674 114.817 47.6239 114.049C51.3323 112.517 56.5245 111.545 62.3113 111.545C68.0981 111.545 73.2903 112.517 76.9987 114.049C78.8552 114.817 80.2919 115.705 81.249 116.64C82.2028 117.572 82.6226 118.489 82.6226 119.353Z" stroke="#47A4B5" stroke-width="2"/>
<path d="M62.1562 110.614C73.9262 110.614 83.4676 106.67 83.4676 101.806C83.4676 96.941 73.9262 92.9976 62.1562 92.9976" stroke="#47A4B5" stroke-width="2"/>
<path d="M82.6226 136.97C82.6226 137.834 82.2028 138.751 81.249 139.683C80.2919 140.618 78.8552 141.506 76.9987 142.274C73.2903 143.806 68.0981 144.778 62.3113 144.778C56.5245 144.778 51.3323 143.806 47.6239 142.274C45.7674 141.506 44.3307 140.618 43.3736 139.683C42.4198 138.751 42 137.834 42 136.97C42 136.105 42.4198 135.188 43.3736 134.256C44.3307 133.321 45.7674 132.433 47.6239 131.666C51.3323 130.133 56.5245 129.162 62.3113 129.162C68.0981 129.162 73.2903 130.133 76.9987 131.666C78.8552 132.433 80.2919 133.321 81.249 134.256C82.2028 135.188 82.6226 136.105 82.6226 136.97Z" stroke="#47A4B5" stroke-width="2"/>
<path d="M82.6226 154.585C82.6226 155.45 82.2028 156.367 81.249 157.299C80.2919 158.234 78.8552 159.122 76.9987 159.889C73.2903 161.422 68.0981 162.393 62.3113 162.393C56.5245 162.393 51.3323 161.422 47.6239 159.889C45.7674 159.122 44.3307 158.234 43.3736 157.299C42.4198 156.367 42 155.45 42 154.585C42 153.721 42.4198 152.804 43.3736 151.872C44.3307 150.937 45.7674 150.049 47.6239 149.281C51.3323 147.749 56.5245 146.777 62.3113 146.777C68.0981 146.777 73.2903 147.749 76.9987 149.281C78.8552 150.049 80.2919 150.937 81.249 151.872C82.2028 152.804 82.6226 153.721 82.6226 154.585Z" stroke="#47A4B5" stroke-width="2"/>
<path d="M62.3113 181.01C50.5414 181.01 41 177.066 41 172.202C41 167.337 50.5414 163.394 62.3113 163.394" stroke="#47A4B5" stroke-width="2"/>
</g>
<line y1="-0.5" x2="81.4619" y2="-0.5" transform="matrix(0.0023331 0.999997 -0.999995 0.00315734 62.0977 44.6172)" stroke="#47A4B5"/>
<path d="M83.0736 114.52C83.0736 115.566 82.5653 116.607 81.5505 117.604C80.5339 118.602 79.0371 119.523 77.1471 120.308C73.3693 121.877 68.1156 122.859 62.2868 122.859C56.4579 122.859 51.2043 121.877 47.4265 120.308C45.5365 119.523 44.0397 118.602 43.0231 117.604C42.0082 116.607 41.5 115.566 41.5 114.52C41.5 113.474 42.0082 112.433 43.0231 111.436C44.0397 110.438 45.5365 109.517 47.4265 108.732C51.2043 107.163 56.4579 106.181 62.2868 106.181C68.1156 106.181 73.3693 107.163 77.1471 108.732C79.0371 109.517 80.5339 110.438 81.5505 111.436C82.5653 112.433 83.0736 113.474 83.0736 114.52Z" stroke="#47A4B5"/>
<path d="M62.1328 105.75C73.8892 105.75 83.4196 101.793 83.4196 96.9111C83.4196 92.0296 73.8892 88.0723 62.1328 88.0723" stroke="#47A4B5"/>
<path d="M83.0736 132.198C83.0736 133.244 82.5653 134.286 81.5505 135.282C80.5339 136.28 79.0371 137.202 77.1471 137.986C73.3693 139.555 68.1156 140.537 62.2868 140.537C56.4579 140.537 51.2043 139.555 47.4265 137.986C45.5365 137.202 44.0397 136.28 43.0231 135.282C42.0082 134.286 41.5 133.244 41.5 132.198C41.5 131.153 42.0082 130.111 43.0231 129.115C44.0397 128.117 45.5365 127.195 47.4265 126.41C51.2043 124.841 56.4579 123.859 62.2868 123.859C68.1156 123.859 73.3693 124.841 77.1471 126.41C79.0371 127.195 80.5339 128.117 81.5505 129.115C82.5653 130.111 83.0736 131.153 83.0736 132.198Z" stroke="#47A4B5"/>
<path d="M83.0736 149.875C83.0736 150.921 82.5653 151.963 81.5505 152.959C80.5339 153.957 79.0371 154.879 77.1471 155.664C73.3693 157.232 68.1156 158.214 62.2868 158.214C56.4579 158.214 51.2043 157.232 47.4265 155.664C45.5365 154.879 44.0397 153.957 43.0231 152.959C42.0082 151.963 41.5 150.921 41.5 149.875C41.5 148.83 42.0082 147.788 43.0231 146.792C44.0397 145.794 45.5365 144.872 47.4265 144.087C51.2043 142.519 56.4579 141.537 62.2868 141.537C68.1156 141.537 73.3693 142.519 77.1471 144.087C79.0371 144.872 80.5339 145.794 81.5505 146.792C82.5653 147.788 83.0736 148.83 83.0736 149.875Z" stroke="#47A4B5"/>
<path d="M62.2868 176.392C50.5304 176.392 41 172.435 41 167.553C41 162.672 50.5304 158.714 62.2868 158.714" stroke="#47A4B5"/>
<defs>
<filter id="filter0_f_1059_105" x="0" y="0" width="124.469" height="222.01" filterUnits="userSpaceOnUse" color-interpolation-filters="sRGB">
<feFlood flood-opacity="0" result="BackgroundImageFix"/>
<feBlend mode="normal" in="SourceGraphic" in2="BackgroundImageFix" result="shape"/>
<feGaussianBlur stdDeviation="20" result="effect1_foregroundBlur_1059_105"/>
</filter>
</defs>
</svg>
